<svg width="25" height="24" viewBox="0 0 25 24" fill="none" xmlns="http://www.w3.org/2000/svg">
<g clip-path="url(#clip0_0_126)">
<path d="M24.214 12.2245C24.214 11.2413 24.1343 10.5237 23.9616 9.77963H12.7336V14.2176H19.3242C19.1914 15.3205 18.4738 16.9815 16.8793 18.0976L16.8569 18.2461L20.407 20.9963L20.653 21.0209C22.9118 18.9347 24.214 15.8653 24.214 12.2245Z" fill="#4285F4"/>
<path d="M12.7336 23.9176C15.9624 23.9176 18.6731 22.8545 20.653 21.0209L16.8793 18.0976C15.8695 18.8018 14.5141 19.2934 12.7336 19.2934C9.57121 19.2934 6.88715 17.2074 5.93035 14.324L5.79011 14.3359L2.09869 17.1927L2.05042 17.3269C4.01695 21.2334 8.05637 23.9176 12.7336 23.9176Z" fill="#34A853"/>
<path d="M5.93035 14.324C5.67789 13.5799 5.53179 12.7826 5.53179 11.9588C5.53179 11.1349 5.67789 10.3377 5.91707 9.59359L5.91038 9.43512L2.1727 6.5324L2.05041 6.59057C1.23991 8.21167 0.774841 10.0321 0.774841 11.9588C0.774841 13.8855 1.23991 15.7058 2.05041 17.3269L5.93035 14.324Z" fill="#FBBC05"/>
<path d="M12.7336 4.62403C14.9792 4.62403 16.4939 5.59402 17.3577 6.40461L20.7327 3.10928C18.6599 1.1826 15.9624 0 12.7336 0C8.05637 0 4.01695 2.68406 2.05042 6.59056L5.91707 9.59359C6.88715 6.7102 9.57121 4.62403 12.7336 4.62403Z" fill="#EB4335"/>
</g>
<defs>
<clipPath id="clip0_0_126">
<rect width="23.4528" height="24" fill="white" transform="translate(0.773621)"/>
</clipPath>
</defs>
</svg>
