<svg width="360" height="360" viewBox="0 0 360 360" fill="none" xmlns="http://www.w3.org/2000/svg">
<path d="M279.261 87.3031L273.646 85.1252C274.653 85.5428 275.492 86.2855 276.028 87.235C278.894 91.829 278.177 102.344 273.85 113.471C269.563 124.597 262.995 132.866 257.789 134.329C256.743 134.65 255.621 134.626 254.59 134.261L260.205 136.439C265.578 138.515 274.191 129.225 279.463 115.647C284.736 102.07 284.636 89.3753 279.261 87.3031Z" fill="#FECFC4"/>
<path d="M292.87 173.155L289.91 167.917C290.431 168.884 290.612 169.999 290.42 171.081C289.704 176.424 282.492 184.114 272.113 190C261.734 195.885 251.425 198.098 246.457 195.955C245.433 195.553 244.571 194.823 244.007 193.879L246.967 199.119C249.833 204.122 262.416 202.386 275.075 195.24C287.734 188.06 295.698 178.19 292.87 173.155Z" fill="#FECFC4"/>
<path d="M282.087 163.255C277.631 166.317 267.08 166.181 255.759 162.472C244.438 158.763 235.818 152.638 234.088 147.533C233.699 146.508 233.663 145.382 233.986 144.334L232.114 150.051C230.311 155.53 240.077 163.663 253.893 168.189C267.743 172.715 280.4 171.93 282.203 166.452L284.075 160.736C283.708 161.772 283.009 162.657 282.087 163.255Z" fill="#FECFC4"/>
<path d="M196.606 221.477C191.502 223.178 181.395 220.115 171.532 213.417C161.698 206.679 155.132 198.41 154.858 193.034C154.768 191.943 155.043 190.854 155.64 189.937L152.272 194.905C149.039 199.669 156.153 210.184 168.197 218.385C180.209 226.586 192.63 229.341 195.863 224.579L199.232 219.61C198.602 220.521 197.673 221.181 196.606 221.477Z" fill="#FECFC4"/>
<path d="M188.507 121.255L182.892 119.077C183.91 119.5 184.75 120.259 185.274 121.227C188.14 125.821 187.424 136.335 183.125 147.463C178.803 158.59 172.27 166.825 167.063 168.323C166.017 168.643 164.896 168.619 163.865 168.255L169.48 170.431C174.853 172.508 183.499 163.183 188.74 149.607C194.02 136.031 193.884 123.338 188.507 121.255Z" fill="#FECFC4"/>
<path d="M211.953 182.547L210.372 176.952C210.597 177.949 210.495 178.993 210.082 179.928C208.111 184.963 199.26 190.714 187.759 193.912C176.257 197.136 165.708 196.805 161.42 193.538C160.518 192.916 159.857 192.003 159.548 190.952L161.182 196.737C162.747 202.289 175.372 203.611 189.392 199.697C203.412 195.784 213.518 188.093 211.953 182.547Z" fill="#FECFC4"/>
<path d="M124.977 216.304L121.506 211.404C122.122 212.303 122.432 213.377 122.391 214.466C122.288 219.809 116.122 228.01 106.669 234.678C97.2162 241.346 87.4105 244.412 82.3384 242.709C81.2914 242.392 80.3735 241.748 79.72 240.871L83.1909 245.771C86.524 250.467 98.5702 247.711 110.106 239.58C121.642 231.449 128.312 221.034 124.977 216.304Z" fill="#FECFC4"/>
<path d="M105.002 215.147C100.952 218.652 90.7434 219.571 79.4476 217.019C68.1517 214.467 59.3364 209.26 57.1926 204.36C56.7224 203.375 56.5908 202.263 56.8183 201.196L55.4911 207.049C54.2374 212.697 64.3387 219.775 78.1204 222.906C91.9004 226.003 104.117 223.961 105.376 218.346L106.703 212.493C106.443 213.541 105.845 214.473 105.002 215.147Z" fill="#FECFC4"/>
<path d="M94.1807 150.664L88.4979 148.694C89.5241 149.07 90.4035 149.759 91.016 150.664C94.0446 155.053 93.8064 165.33 89.9951 176.252C86.1839 187.173 79.9906 195.376 74.8881 196.941C73.8526 197.293 72.7321 197.305 71.6893 196.975L77.3722 198.945C82.8168 200.851 90.9838 191.602 95.6404 178.256C100.272 164.922 99.6254 152.569 94.1807 150.664Z" fill="#FECFC4"/>
<path d="M109.528 240.02C98.1619 247.813 86.49 250.399 83.225 245.771L79.754 240.871C79.3616 240.282 79.0903 239.62 78.9559 238.925C78.8216 238.231 78.8268 237.516 78.9713 236.823C69.2999 238.388 62.4941 242.132 62.4941 246.519C62.4941 254.257 80.071 256.966 88.8218 256.966C100.732 256.966 110.805 253.836 114.075 249.516C116.946 245.701 113.849 242.203 109.528 240.02Z" fill="#6153BD"/>
<path d="M200.009 217.359C199.962 218.161 199.704 218.935 199.26 219.605L195.891 224.573C192.659 229.337 180.272 226.581 168.226 218.38C166.154 216.964 164.166 215.43 162.271 213.786C155.261 215.692 150.667 218.856 150.667 222.463C150.667 230.182 168.398 232.91 177.005 232.91C185.727 232.91 203.344 230.197 203.344 222.463C203.231 221.409 202.871 220.397 202.291 219.51C201.711 218.622 200.929 217.885 200.009 217.359Z" fill="#6153BD"/>
<path d="M281.232 191.293C279.263 192.706 277.219 194.012 275.109 195.206C262.416 202.386 249.856 204.122 247.001 199.085L244.041 193.845C243.562 192.971 243.374 191.967 243.503 190.979C237.65 193.259 233.533 197.173 236.731 201.426C244.105 211.277 279.705 211.381 287.229 201.426C290.424 197.164 286.163 193.411 281.232 191.293Z" fill="#6153BD"/>
<path d="M288.243 300.558H341.736" stroke="#120071" stroke-width="0.769171" stroke-linecap="round" stroke-linejoin="round"/>
<path d="M203.344 300.558H235.533" stroke="#120071" stroke-width="0.769171" stroke-linecap="round" stroke-linejoin="round"/>
<path d="M115.18 300.558H150.633" stroke="#120071" stroke-width="0.769171" stroke-linecap="round" stroke-linejoin="round"/>
<path d="M324.585 291.302L341.736 300.558L324.585 309.846" stroke="#120071" stroke-width="0.769171" stroke-linecap="round" stroke-linejoin="round"/>
<path d="M338.928 91.4553V106.326" stroke="#120071" stroke-width="0.769171" stroke-linecap="round" stroke-linejoin="round"/>
<path d="M346.362 98.8896H331.493" stroke="#120071" stroke-width="0.769171" stroke-linecap="round" stroke-linejoin="round"/>
<path d="M291.203 346.427C291.305 346.866 291.307 347.322 291.211 347.762C291.115 348.202 290.923 348.616 290.648 348.973C290.373 349.33 290.023 349.621 289.622 349.827C289.221 350.032 288.779 350.146 288.329 350.16C287.726 350.178 287.132 350.018 286.621 349.698C286.11 349.378 285.706 348.913 285.459 348.363C285.276 347.952 285.185 347.505 285.195 347.055C285.204 346.604 285.313 346.161 285.514 345.758C285.715 345.355 286.003 345.002 286.357 344.723C286.711 344.444 287.123 344.248 287.562 344.147C288.347 343.969 289.171 344.108 289.853 344.536C290.536 344.963 291.021 345.643 291.203 346.427Z" stroke="#120071" stroke-width="0.769171" stroke-linecap="round" stroke-linejoin="round"/>
<path d="M62.467 294.569C62.467 302.302 80.0833 305.016 88.8037 305.016C97.1784 305.016 115.142 302.329 115.142 294.569" stroke="#120071" stroke-width="0.769171" stroke-linecap="round" stroke-linejoin="round"/>
<path d="M62.467 288.546C62.467 296.279 80.0833 298.992 88.8037 298.992C97.1784 298.992 115.142 296.306 115.142 288.546" stroke="#120071" stroke-width="0.769171" stroke-linecap="round" stroke-linejoin="round"/>
<path d="M62.467 282.556C62.467 290.29 80.0833 293.003 88.8037 293.003C97.1784 293.003 115.142 290.317 115.142 282.556" stroke="#120071" stroke-width="0.769171" stroke-linecap="round" stroke-linejoin="round"/>
<path d="M62.467 276.535C62.467 284.268 80.0833 286.982 88.8037 286.982C97.1784 286.982 115.142 284.295 115.142 276.535" stroke="#120071" stroke-width="0.769171" stroke-linecap="round" stroke-linejoin="round"/>
<path d="M62.467 270.544C62.467 278.278 80.0833 280.991 88.8037 280.991C97.1784 280.991 115.142 278.304 115.142 270.544" stroke="#120071" stroke-width="0.769171" stroke-linecap="round" stroke-linejoin="round"/>
<path d="M62.4667 264.523C62.4667 272.257 80.0829 274.97 88.8033 274.97C97.178 274.97 115.142 272.284 115.142 264.523" stroke="#120071" stroke-width="0.769171" stroke-linecap="round" stroke-linejoin="round"/>
<path d="M62.4667 258.534C62.4667 266.268 80.0829 268.981 88.8033 268.981C97.178 268.981 115.142 266.295 115.142 258.534" stroke="#120071" stroke-width="0.769171" stroke-linecap="round" stroke-linejoin="round"/>
<path d="M62.4667 252.511C62.4667 260.244 80.0829 262.958 88.8033 262.958C97.178 262.958 115.142 260.271 115.142 252.511" stroke="#120071" stroke-width="0.769171" stroke-linecap="round" stroke-linejoin="round"/>
<path d="M78.9712 236.825C69.2998 238.391 62.494 242.134 62.494 246.522C62.494 254.243 80.2249 256.969 88.8217 256.969C97.5439 256.969 115.164 254.255 115.164 246.522C115.164 244.073 113.05 241.794 109.477 240.022" stroke="#120071" stroke-width="0.769171" stroke-linecap="round" stroke-linejoin="round"/>
<path d="M62.4489 246.522V300.56C62.4489 306.311 74.2408 311.005 88.8034 311.005C103.366 311.005 115.179 306.348 115.179 300.56V246.522" stroke="#120071" stroke-width="0.769171" stroke-linecap="round" stroke-linejoin="round"/>
<path d="M261.668 107.551L265.241 108.808" stroke="#120071" stroke-width="0.769171" stroke-linecap="round" stroke-linejoin="round"/>
<path d="M262.008 118.608L257.958 117.043L264.458 100.269L267.997 101.63C270.95 102.776 268.23 109.972 265.241 108.808L265.649 108.978C269.743 110.372 266.038 120.181 262.008 118.608Z" stroke="#120071" stroke-width="0.769171" stroke-linecap="round" stroke-linejoin="round"/>
<path d="M259.314 117.568L258.367 120.038" stroke="#120071" stroke-width="0.769171" stroke-linecap="round" stroke-linejoin="round"/>
<path d="M266.84 98.1931L265.826 100.794" stroke="#120071" stroke-width="0.769171" stroke-linecap="round" stroke-linejoin="round"/>
<path d="M261.082 118.252L260.102 120.719" stroke="#120071" stroke-width="0.769171" stroke-linecap="round" stroke-linejoin="round"/>
<path d="M268.576 98.873L267.596 101.474" stroke="#120071" stroke-width="0.769171" stroke-linecap="round" stroke-linejoin="round"/>
<path d="M264.458 100.269L263.165 99.7583" stroke="#120071" stroke-width="0.769171" stroke-linecap="round" stroke-linejoin="round"/>
<path d="M256.665 116.533L257.958 117.044" stroke="#120071" stroke-width="0.769171" stroke-linecap="round" stroke-linejoin="round"/>
<path d="M261.046 149.952L259.988 153.59" stroke="#120071" stroke-width="0.769171" stroke-linecap="round" stroke-linejoin="round"/>
<path d="M250.028 150.907L251.366 146.777L268.477 152.329L267.314 155.938C266.331 158.951 258.997 156.635 259.993 153.585L259.846 154.002C258.678 158.171 248.686 155.017 250.028 150.907Z" stroke="#120071" stroke-width="0.769171" stroke-linecap="round" stroke-linejoin="round"/>
<path d="M250.913 148.16L248.394 147.35" stroke="#120071" stroke-width="0.769171" stroke-linecap="round" stroke-linejoin="round"/>
<path d="M270.676 154.599L268.022 153.73" stroke="#120071" stroke-width="0.769171" stroke-linecap="round" stroke-linejoin="round"/>
<path d="M250.329 149.964L247.811 149.122" stroke="#120071" stroke-width="0.769171" stroke-linecap="round" stroke-linejoin="round"/>
<path d="M270.094 156.368L267.442 155.534" stroke="#120071" stroke-width="0.769171" stroke-linecap="round" stroke-linejoin="round"/>
<path d="M268.472 152.335L268.91 151.015" stroke="#120071" stroke-width="0.769171" stroke-linecap="round" stroke-linejoin="round"/>
<path d="M251.799 145.457L251.36 146.777" stroke="#120071" stroke-width="0.769171" stroke-linecap="round" stroke-linejoin="round"/>
<path d="M263.981 170.605C255.718 174.736 239.962 186.634 244.006 193.845C247.699 200.495 264.513 194.251 272.113 189.965C279.663 185.683 293.673 174.654 289.91 167.882C288.823 165.943 286.201 164.99 282.663 165.017" stroke="#120071" stroke-width="0.769171" stroke-linecap="round" stroke-linejoin="round"/>
<path d="M262.28 142.599C248.43 138.073 235.773 138.856 233.968 144.337C231.493 151.515 247.433 159.75 255.747 162.472C263.919 165.141 281.503 168.15 284.057 160.737C285.861 155.258 276.096 147.125 262.28 142.599Z" stroke="#120071" stroke-width="0.769171" stroke-linecap="round" stroke-linejoin="round"/>
<path d="M284.057 160.736L282.185 166.453C280.382 171.934 267.723 172.722 253.875 168.191C240.057 163.667 230.293 155.53 232.096 150.051L233.968 144.334" stroke="#120071" stroke-width="0.769171" stroke-linecap="round" stroke-linejoin="round"/>
<path d="M188.337 199.936C196.878 207.048 202.128 215.357 199.226 219.637C192.454 229.633 155.513 207.279 154.886 193.061C154.752 189.973 156.647 188.203 159.796 187.722" stroke="#120071" stroke-width="0.769171" stroke-linecap="round" stroke-linejoin="round"/>
<path d="M178.094 201.774C178.435 201.978 178.743 202.18 179.047 202.386C184.408 206 187.078 211.404 185.036 214.398" stroke="#120071" stroke-width="0.769171" stroke-linecap="round" stroke-linejoin="round"/>
<path d="M177.89 207.32L181.497 202.08" stroke="#120071" stroke-width="0.769171" stroke-linecap="round" stroke-linejoin="round"/>
<path d="M174.929 205.312L177.277 201.841" stroke="#120071" stroke-width="0.769171" stroke-linecap="round" stroke-linejoin="round"/>
<path d="M210.32 176.763C208.788 171.182 196.171 169.857 182.076 173.838C168.056 177.75 157.949 185.44 159.509 190.987C161.527 198.303 179.298 196.29 187.719 193.948C196.14 191.605 212.318 184.264 210.32 176.763Z" stroke="#120071" stroke-width="0.769171" stroke-linecap="round" stroke-linejoin="round"/>
<path d="M210.32 176.762L211.953 182.547C213.518 188.099 203.412 195.784 189.386 199.697C175.361 203.611 162.742 202.283 161.176 196.737L159.744 191.613" stroke="#120071" stroke-width="0.769171" stroke-linecap="round" stroke-linejoin="round"/>
<path d="M174.657 190.544C173.671 187.039 177.958 182.82 184.186 181.084C190.413 179.349 196.266 180.778 197.26 184.249" stroke="#120071" stroke-width="0.769171" stroke-linecap="round" stroke-linejoin="round"/>
<path d="M187.18 185.134L185.444 179.009" stroke="#120071" stroke-width="0.769171" stroke-linecap="round" stroke-linejoin="round"/>
<path d="M183.709 186.12L181.973 179.961" stroke="#120071" stroke-width="0.769171" stroke-linecap="round" stroke-linejoin="round"/>
<path d="M182.892 119.085C177.519 117.009 168.872 126.333 163.666 139.879C158.391 153.454 158.529 166.147 163.904 168.221C171.016 171.166 180.138 155.283 183.164 147.431C186.304 139.282 190.131 121.832 182.892 119.085Z" stroke="#120071" stroke-width="0.769171" stroke-linecap="round" stroke-linejoin="round"/>
<path d="M182.892 119.085L188.507 121.255C193.88 123.331 194.005 136.019 188.745 149.602C183.485 163.185 174.861 172.508 169.485 170.433L163.87 168.257" stroke="#120071" stroke-width="0.769171" stroke-linecap="round" stroke-linejoin="round"/>
<path d="M273.646 85.1256C268.273 83.0498 259.626 92.3737 254.419 105.915C249.145 119.493 249.281 132.186 254.658 134.262C261.768 137.204 270.891 121.323 273.918 113.472C277.056 105.316 280.885 87.8712 273.646 85.1256Z" stroke="#120071" stroke-width="0.769171" stroke-linecap="round" stroke-linejoin="round"/>
<path d="M273.646 85.1255L279.26 87.3033C284.633 89.3809 284.757 102.065 279.497 115.648C274.237 129.231 265.609 138.549 260.236 136.479L254.622 134.301" stroke="#120071" stroke-width="0.769171" stroke-linecap="round" stroke-linejoin="round"/>
<path d="M172.581 155.938C169.213 154.645 168.342 148.681 170.676 142.633C173.01 136.585 177.652 132.765 181.021 134.058" stroke="#120071" stroke-width="0.769171" stroke-linecap="round" stroke-linejoin="round"/>
<path d="M175.746 142.667L169.825 140.353" stroke="#120071" stroke-width="0.769171" stroke-linecap="round" stroke-linejoin="round"/>
<path d="M174.453 146.036L168.498 143.722" stroke="#120071" stroke-width="0.769171" stroke-linecap="round" stroke-linejoin="round"/>
<path d="M106.771 210.996C113.645 208.409 119.35 208.384 121.506 211.404C125.94 217.615 113.71 229.717 106.641 234.687C92.4917 244.611 77.5977 246.391 78.9768 236.797C79.4837 233.256 82.3099 228.698 86.7336 224.206" stroke="#120071" stroke-width="0.769171" stroke-linecap="round" stroke-linejoin="round"/>
<path d="M79.72 240.837C80.3737 241.715 81.2907 242.358 82.3384 242.675C86.6261 244.108 94.2754 242.154 102.245 237.504C103.707 236.65 105.175 235.713 106.635 234.68C116.111 228.033 122.229 219.814 122.357 214.467C122.423 213.379 122.123 212.301 121.506 211.404" stroke="#120071" stroke-width="0.769171" stroke-linecap="round" stroke-linejoin="round"/>
<path d="M121.506 211.404L124.977 216.304C128.215 220.898 122.016 230.854 111.088 238.871C103.735 244.267 87.7042 252.181 83.1909 245.77L79.72 240.835" stroke="#120071" stroke-width="0.769171" stroke-linecap="round" stroke-linejoin="round"/>
<path d="M91.22 228.861L94.6909 233.25C95.5417 234.339 97.7535 234.033 99.6251 232.604C101.497 231.175 102.347 229.133 101.497 228.078L99.5571 225.628C99.3339 225.255 99.2218 224.827 99.2339 224.393C99.2459 223.959 99.3817 223.537 99.6251 223.178" stroke="#120071" stroke-width="0.769171" stroke-linecap="round" stroke-linejoin="round"/>
<path d="M104.778 219.775C105.074 219.753 105.372 219.8 105.647 219.912C105.923 220.024 106.168 220.199 106.365 220.422L109.836 224.846" stroke="#120071" stroke-width="0.769171" stroke-linecap="round" stroke-linejoin="round"/>
<path d="M109.902 219.707L91.152 233.965" stroke="#120071" stroke-width="0.769171" stroke-linecap="round" stroke-linejoin="round"/>
<path d="M84.3802 196.703C97.9918 199.868 108.005 206.88 106.703 212.493C104.971 219.968 87.9425 218.971 79.4478 217.053C71.3722 215.228 55.1117 208.673 56.8185 201.229C57.6137 197.762 62.5354 195.648 69.3752 195.274" stroke="#120071" stroke-width="0.769171" stroke-linecap="round" stroke-linejoin="round"/>
<path d="M106.703 212.493L105.376 218.346C104.123 223.961 91.8972 226.019 78.1208 222.906C64.3444 219.793 54.2325 212.697 55.4915 207.049L56.8187 201.196" stroke="#120071" stroke-width="0.769171" stroke-linecap="round" stroke-linejoin="round"/>
<path d="M88.9059 212.833L89.8587 207.281C90.4337 204 82.0088 202.553 81.4536 205.716L80.9163 208.812C80.3414 212.022 71.9488 210.424 72.5129 207.213L73.4657 201.7" stroke="#120071" stroke-width="0.769171" stroke-linecap="round" stroke-linejoin="round"/>
<path d="M92.7513 209.43L69.6134 205.074" stroke="#120071" stroke-width="0.769171" stroke-linecap="round" stroke-linejoin="round"/>
<path d="M88.4975 148.69C83.0529 146.784 74.8859 156.074 70.1917 169.414C65.5637 182.751 66.2103 195.104 71.6549 197.009C78.9085 199.517 87.2205 184.141 89.9608 176.286C92.8192 168.099 95.7385 151.187 88.4975 148.69Z" stroke="#120071" stroke-width="0.769171" stroke-linecap="round" stroke-linejoin="round"/>
<path d="M88.4976 148.69L94.1804 150.66C99.6251 152.566 100.288 164.924 95.6437 178.256C90.9996 191.588 82.8147 200.851 77.3755 198.946L71.6926 196.976" stroke="#120071" stroke-width="0.769171" stroke-linecap="round" stroke-linejoin="round"/>
<path d="M86.8677 166.42L81.4571 164.855C78.2333 163.945 75.819 172.14 78.9497 173.022L81.9425 173.906C85.0678 174.866 82.598 183.001 79.4261 182.105L74.0531 180.54" stroke="#120071" stroke-width="0.769171" stroke-linecap="round" stroke-linejoin="round"/>
<path d="M83.9039 162.234L76.9637 184.725" stroke="#120071" stroke-width="0.769171" stroke-linecap="round" stroke-linejoin="round"/>
<path d="M83.4954 99.7241L143.999 38.3036L184.594 78.2518L251.969 9.99146" stroke="#120071" stroke-width="0.769171" stroke-linecap="round" stroke-linejoin="round"/>
<path d="M216.715 9.99146H251.969V45.1076" stroke="#120071" stroke-width="0.769171" stroke-linecap="round" stroke-linejoin="round"/>
<path d="M22.8915 230.324V164.105" stroke="#120071" stroke-width="0.769171" stroke-linecap="round" stroke-linejoin="round"/>
<path d="M13.6373 181.254L22.8914 164.105L32.1813 181.254" stroke="#120071" stroke-width="0.769171" stroke-linecap="round" stroke-linejoin="round"/>
<path d="M198.968 219.985L195.857 224.573C192.633 229.337 180.209 226.572 168.192 218.38C156.174 210.188 149.028 199.664 152.266 194.9L155.669 189.966" stroke="#120071" stroke-width="0.769171" stroke-linecap="round" stroke-linejoin="round"/>
<path d="M244.007 193.845L246.967 199.085C249.833 204.088 262.423 202.365 275.075 195.206C287.727 188.047 295.695 178.157 292.87 173.123L289.91 167.917" stroke="#120071" stroke-width="0.769171" stroke-linecap="round" stroke-linejoin="round"/>
<path d="M235.601 246.486C235.601 254.22 253.218 256.933 261.94 256.933C270.313 256.933 288.267 254.246 288.267 246.486" stroke="#120071" stroke-width="0.769171" stroke-linecap="round" stroke-linejoin="round"/>
<path d="M235.601 240.465C235.601 248.197 253.218 250.91 261.94 250.91C270.313 250.91 288.267 248.224 288.267 240.465" stroke="#120071" stroke-width="0.769171" stroke-linecap="round" stroke-linejoin="round"/>
<path d="M235.601 252.578C235.601 260.311 253.218 263.025 261.94 263.025C270.313 263.025 288.267 260.338 288.267 252.578" stroke="#120071" stroke-width="0.769171" stroke-linecap="round" stroke-linejoin="round"/>
<path d="M235.601 258.635C235.601 266.368 253.218 269.081 261.94 269.081C270.313 269.081 288.267 266.395 288.267 258.635" stroke="#120071" stroke-width="0.769171" stroke-linecap="round" stroke-linejoin="round"/>
<path d="M235.601 264.692C235.601 272.425 253.218 275.139 261.94 275.139C270.313 275.139 288.267 272.452 288.267 264.692" stroke="#120071" stroke-width="0.769171" stroke-linecap="round" stroke-linejoin="round"/>
<path d="M235.601 270.749C235.601 278.482 253.218 281.196 261.94 281.196C270.313 281.196 288.267 278.509 288.267 270.749" stroke="#120071" stroke-width="0.769171" stroke-linecap="round" stroke-linejoin="round"/>
<path d="M235.601 276.806C235.601 284.54 253.218 287.253 261.94 287.253C270.313 287.253 288.267 284.566 288.267 276.806" stroke="#120071" stroke-width="0.769171" stroke-linecap="round" stroke-linejoin="round"/>
<path d="M235.601 282.863C235.601 290.597 253.218 293.31 261.94 293.31C270.313 293.31 288.267 290.624 288.267 282.863" stroke="#120071" stroke-width="0.769171" stroke-linecap="round" stroke-linejoin="round"/>
<path d="M235.601 288.92C235.601 296.654 253.218 299.367 261.94 299.367C270.313 299.367 288.267 296.681 288.267 288.92" stroke="#120071" stroke-width="0.769171" stroke-linecap="round" stroke-linejoin="round"/>
<path d="M235.601 294.983C235.601 302.717 253.218 305.43 261.94 305.43C270.313 305.43 288.267 302.744 288.267 294.983" stroke="#120071" stroke-width="0.769171" stroke-linecap="round" stroke-linejoin="round"/>
<path d="M235.601 234.476C235.601 242.209 253.218 244.921 261.94 244.921C270.313 244.921 288.267 242.235 288.267 234.476" stroke="#120071" stroke-width="0.769171" stroke-linecap="round" stroke-linejoin="round"/>
<path d="M235.601 228.453C235.601 236.187 253.218 238.9 261.94 238.9C270.313 238.9 288.267 236.214 288.267 228.453" stroke="#120071" stroke-width="0.769171" stroke-linecap="round" stroke-linejoin="round"/>
<path d="M235.601 222.464C235.601 230.198 253.218 232.911 261.94 232.911C270.313 232.911 288.267 230.225 288.267 222.464" stroke="#120071" stroke-width="0.769171" stroke-linecap="round" stroke-linejoin="round"/>
<path d="M235.601 216.441C235.601 224.174 253.218 226.888 261.94 226.888C270.313 226.888 288.267 224.201 288.267 216.441" stroke="#120071" stroke-width="0.769171" stroke-linecap="round" stroke-linejoin="round"/>
<path d="M235.601 210.448C235.601 218.181 253.218 220.895 261.94 220.895C270.313 220.895 288.267 218.208 288.267 210.448" stroke="#120071" stroke-width="0.769171" stroke-linecap="round" stroke-linejoin="round"/>
<path d="M235.601 204.428C235.601 212.162 253.218 214.875 261.94 214.875C270.313 214.875 288.267 212.189 288.267 204.428" stroke="#120071" stroke-width="0.769171" stroke-linecap="round" stroke-linejoin="round"/>
<path d="M235.585 199.095V300.573C235.585 306.324 247.375 311.02 261.94 311.02C276.504 311.02 288.293 306.363 288.293 300.573V199.202" stroke="#120071" stroke-width="0.769171" stroke-linecap="round" stroke-linejoin="round"/>
<path d="M281.191 191.293C286.206 193.415 290.455 197.131 287.215 201.433C279.71 211.402 244.093 211.284 236.717 201.433C233.544 197.214 237.573 193.327 243.353 191.045" stroke="#120071" stroke-width="0.769171" stroke-linecap="round" stroke-linejoin="round"/>
<path d="M150.627 270.545C150.627 278.278 168.243 280.992 176.966 280.992C185.339 280.992 203.304 278.305 203.304 270.545" stroke="#120071" stroke-width="0.769171" stroke-linecap="round" stroke-linejoin="round"/>
<path d="M150.627 264.522C150.627 272.256 168.243 274.969 176.966 274.969C185.339 274.969 203.304 272.282 203.304 264.522" stroke="#120071" stroke-width="0.769171" stroke-linecap="round" stroke-linejoin="round"/>
<path d="M150.627 276.636C150.627 284.369 168.243 287.083 176.966 287.083C185.339 287.083 203.304 284.396 203.304 276.636" stroke="#120071" stroke-width="0.769171" stroke-linecap="round" stroke-linejoin="round"/>
<path d="M150.627 282.693C150.627 290.426 168.243 293.139 176.966 293.139C185.339 293.139 203.304 290.453 203.304 282.693" stroke="#120071" stroke-width="0.769171" stroke-linecap="round" stroke-linejoin="round"/>
<path d="M150.627 288.75C150.627 296.483 168.243 299.197 176.966 299.197C185.339 299.197 203.304 296.51 203.304 288.75" stroke="#120071" stroke-width="0.769171" stroke-linecap="round" stroke-linejoin="round"/>
<path d="M150.627 294.804C150.627 302.537 168.243 305.251 176.966 305.251C185.339 305.251 203.304 302.564 203.304 294.804" stroke="#120071" stroke-width="0.769171" stroke-linecap="round" stroke-linejoin="round"/>
<path d="M150.627 258.533C150.627 266.266 168.243 268.98 176.966 268.98C185.339 268.98 203.304 266.293 203.304 258.533" stroke="#120071" stroke-width="0.769171" stroke-linecap="round" stroke-linejoin="round"/>
<path d="M150.627 252.51C150.627 260.243 168.243 262.957 176.966 262.957C185.339 262.957 203.304 260.27 203.304 252.51" stroke="#120071" stroke-width="0.769171" stroke-linecap="round" stroke-linejoin="round"/>
<path d="M150.627 246.52C150.627 254.253 168.243 256.967 176.966 256.967C185.339 256.967 203.304 254.28 203.304 246.52" stroke="#120071" stroke-width="0.769171" stroke-linecap="round" stroke-linejoin="round"/>
<path d="M150.627 240.499C150.627 248.231 168.243 250.944 176.966 250.944C185.339 250.944 203.304 248.258 203.304 240.499" stroke="#120071" stroke-width="0.769171" stroke-linecap="round" stroke-linejoin="round"/>
<path d="M150.627 234.51C150.627 242.243 168.243 244.955 176.966 244.955C185.339 244.955 203.304 242.269 203.304 234.51" stroke="#120071" stroke-width="0.769171" stroke-linecap="round" stroke-linejoin="round"/>
<path d="M150.627 228.487C150.627 236.22 168.243 238.933 176.966 238.933C185.339 238.933 203.304 236.247 203.304 228.487" stroke="#120071" stroke-width="0.769171" stroke-linecap="round" stroke-linejoin="round"/>
<path d="M150.627 222.823V300.865C150.627 308.596 168.242 311.31 176.955 311.31C185.328 311.31 203.283 308.623 203.283 300.865V222.956" stroke="#120071" stroke-width="0.769171" stroke-linecap="round" stroke-linejoin="round"/>
<path d="M200.002 217.379C203.018 219.496 204.479 222.483 202.255 225.458C198.988 229.78 188.915 232.91 177.002 232.91C165.088 232.91 154.985 229.78 151.748 225.458C147.686 220.04 155.259 215.701 162.219 213.798" stroke="#120071" stroke-width="0.769171" stroke-linecap="round" stroke-linejoin="round"/>
<path d="M266.475 177.688L268.452 180.921" stroke="#120071" stroke-width="0.769171" stroke-linecap="round" stroke-linejoin="round"/>
<path d="M259.757 186.478L257.608 182.708L273.239 173.803L275.124 177.091C276.689 179.848 270.037 183.709 268.454 180.921L268.662 181.309C270.956 184.974 261.895 190.236 259.757 186.478Z" stroke="#120071" stroke-width="0.769171" stroke-linecap="round" stroke-linejoin="round"/>
<path d="M258.326 183.971L256.032 185.289" stroke="#120071" stroke-width="0.769171" stroke-linecap="round" stroke-linejoin="round"/>
<path d="M276.395 173.696L273.967 175.075" stroke="#120071" stroke-width="0.769171" stroke-linecap="round" stroke-linejoin="round"/>
<path d="M259.266 185.617L256.947 186.912" stroke="#120071" stroke-width="0.769171" stroke-linecap="round" stroke-linejoin="round"/>
<path d="M277.31 175.321L274.909 176.719" stroke="#120071" stroke-width="0.769171" stroke-linecap="round" stroke-linejoin="round"/>
<path d="M273.238 173.803L272.557 172.591" stroke="#120071" stroke-width="0.769171" stroke-linecap="round" stroke-linejoin="round"/>
<path d="M256.925 181.496L257.606 182.708" stroke="#120071" stroke-width="0.769171" stroke-linecap="round" stroke-linejoin="round"/>
</svg>
