<svg width="360" height="360" viewBox="0 0 360 360" fill="none" xmlns="http://www.w3.org/2000/svg">
<path d="M223.521 124.329C220.901 127.289 211.88 137.224 209.059 141.003C190.911 114.611 187.338 111.81 172.988 111.81C147.762 111.942 121.508 121.089 100.27 134.299C86.182 143.075 85.025 147.469 83.3916 161.08C82.1755 170.55 81.5177 180.083 81.4215 189.631C82.0519 185.096 110.516 186.036 110.516 191.264C110.584 182.655 111.367 162.577 111.843 158.018C113.715 157.337 116.233 156.418 118.99 155.465C124.035 151.015 128.797 146.253 133.248 141.207C134.968 149.514 136.015 157.947 136.378 166.423C148.054 160.822 162.57 160.127 175.41 162.748C175.58 162.271 175.784 161.761 175.947 161.284C176.022 154.709 175.635 148.137 174.79 141.616C178.569 147.612 192.68 167.085 198.073 172.378C206.849 181.021 214.371 180.239 222.846 170.336C230.166 161.865 236.993 152.98 243.294 143.725C244.454 130.954 231.652 122.205 223.521 124.329Z" fill="#FECFC4"/>
<path d="M220.732 298.319C219.242 296.337 218.517 293.885 218.691 291.411C212.318 290.066 205.801 289.529 199.294 289.812C198.098 297.334 197.374 304.446 196.81 308.259C198.375 303.223 245.472 317.175 246.492 323.368C246.747 314.434 227.54 307.262 220.732 298.319Z" fill="#FECFC4"/>
<path d="M305.226 44.9729C297.23 37.3504 304.886 29.7279 301.789 21.7651C310.943 25.4062 317.136 34.7642 313.019 43.5777L305.226 44.9729Z" fill="#FECFC4"/>
<path d="M68.0446 280.794C59.4245 282.601 54.2539 284.152 50.5537 284.98C56.5088 284.98 59.6395 333.641 53.7184 337.929C62.471 334.246 61.8424 314.551 65.3599 306.35C65.8742 304.896 66.7552 303.599 67.9178 302.586C69.0804 301.572 70.485 300.876 71.9956 300.565C71.7665 293.803 70.4319 287.124 68.0446 280.794Z" fill="#FECFC4"/>
<path d="M263.745 89.4491C255.204 82.5412 243.157 90.0616 243.736 99.2835C245.584 99.3244 247.408 99.7171 249.109 100.44C250.117 102.097 250.69 103.981 250.776 105.919C251.751 107.682 252.693 109.463 253.601 111.262C264.936 114.699 274.975 98.5098 263.745 89.4491Z" fill="#FECFC4"/>
<path d="M228.661 103.299L225.975 100.373L223.661 93.2265C214.847 89.4493 200.019 96.9697 200.623 111.874C201.16 124.839 213.792 130.114 220.324 128.004C221.719 126.439 222.876 125.139 223.591 124.329C224.355 124.119 225.147 124.028 225.939 124.057C226.279 117.693 225.326 114.256 225.326 111.024C225.326 109.731 226.858 107.349 228.661 103.299Z" fill="#FECFC4"/>
<path d="M291.887 77.7087L201.574 56.2418C195.653 55.1529 192.216 57.637 190.515 62.0608L183.877 79.1523C185.792 94.4653 185.609 101.495 184.186 103.236C182.96 104.733 180.136 105.448 176.733 104.937C177.081 107.307 177.546 109.658 178.128 111.981C179.387 112.089 180.639 112.282 181.872 112.56L200.417 64.2333L287.225 85.2972L259.866 163.496L234.582 155.873C232.502 158.582 230.381 161.259 228.219 163.904L260.036 173.466C264.902 174.93 269.598 173.364 271.742 167.477L298.659 90.0613C300.497 84.7527 299.952 79.6824 291.887 77.7087ZM281.951 128.004C281.784 128.61 281.435 129.149 280.95 129.549C280.466 129.949 279.869 130.19 279.243 130.239C278.722 130.281 278.199 130.188 277.724 129.971C277.249 129.753 276.838 129.418 276.529 128.996C276.221 128.574 276.025 128.081 275.962 127.562C275.898 127.043 275.968 126.517 276.166 126.034C276.332 125.428 276.682 124.888 277.166 124.488C277.651 124.088 278.247 123.847 278.874 123.798C279.395 123.757 279.917 123.849 280.393 124.066C280.868 124.284 281.279 124.62 281.587 125.041C281.896 125.463 282.091 125.957 282.155 126.475C282.219 126.994 282.148 127.52 281.951 128.004Z" fill="#6153BD"/>
<path d="M232.609 107.586L240.163 115.855C236.25 117.557 231.962 114.091 232.609 107.586Z" fill="#6153BD"/>
<path d="M243.362 105.001C242.409 104.762 240.299 104.388 237.81 104.014L243.362 110.071C243.498 108.384 243.498 106.688 243.362 105.001Z" fill="#6153BD"/>
<path d="M218.725 291.377C224.578 292.738 226.143 294.576 226.143 295.937C226.143 297.673 223.278 298.285 220.77 298.285C219.289 296.299 218.564 293.85 218.725 291.377Z" fill="#6153BD"/>
<path d="M199.294 289.812C198.852 292.806 198.478 295.29 198.205 297.434C194.19 296.652 191.625 294.948 191.774 293.079C191.899 291.511 194.02 290.186 199.294 289.812Z" fill="#6153BD"/>
<path d="M62.2934 275.043C63.8623 274.646 66.0366 276.03 68.0443 280.828C64.4623 281.611 61.7489 282.261 59.537 282.798C58.9926 278.616 60.4934 275.498 62.2934 275.043Z" fill="#6153BD"/>
<path d="M71.9917 300.565C70.4879 300.892 69.0911 301.594 67.931 302.605C66.7709 303.617 65.8852 304.905 65.3561 306.35C66.0725 308.59 67.9871 310.96 69.7387 309.71C71.0156 308.8 72.1135 305.968 71.9917 300.565Z" fill="#6153BD"/>
<path d="M166.831 189.902C166.218 198.58 166.66 219.235 166.831 226.518C163.428 225.429 160.433 224.51 158.187 223.897C161.522 210.184 164.176 199.396 166.831 189.902Z" fill="#6153BD"/>
<path d="M81.4517 189.562C81.2475 191.06 84.0379 192.625 88.0784 192.829C88.4419 192.551 88.7339 192.19 88.9291 191.774C89.2425 190.137 89.3554 188.47 89.2694 186.806C83.8677 187.18 81.6218 188.371 81.4517 189.562Z" fill="#6153BD"/>
<path d="M110.509 190.882C110.21 189.748 108.422 188.53 104.566 187.759C104.668 189.256 104.737 191.434 104.839 193.848C107.092 193.778 111.046 192.92 110.509 190.882Z" fill="#6153BD"/>
<path d="M133.278 141.173C133.891 144.1 134.469 147.333 134.946 150.666C129.573 151.987 124.268 153.578 119.054 155.43C124.072 150.962 128.822 146.202 133.278 141.173Z" fill="#6153BD"/>
<path d="M180.408 149.816C178.888 153.619 177.413 157.44 175.984 161.279C176.058 154.703 175.672 148.131 174.827 141.61C175.78 143.147 177.85 146.209 180.408 149.816Z" fill="#6153BD"/>
<path d="M224.997 312.572C211.964 308.388 197.679 305.521 196.81 308.255C195.66 311.916 208.715 317.225 221.728 320.841C233.012 323.979 244.273 325.845 246.202 324.262C249.915 321.217 229.61 314.053 224.997 312.572Z" fill="#6153BD"/>
<path d="M56.5674 309.131C55.7328 296.709 53.4743 285.017 50.5192 285.017C46.9246 285.001 45.6835 296.947 46.1151 309.523C46.5969 323.493 49.1437 338.238 52.8331 338.238C58.0324 337.08 56.922 314.4 56.5674 309.131Z" fill="#6153BD"/>
<path d="M311.658 197.083C302.686 195.326 293.398 196.19 284.904 199.574C276.41 202.957 269.071 208.715 263.765 216.16C258.46 223.606 255.412 232.423 254.986 241.556C254.56 250.689 256.774 259.751 261.363 267.659C286.715 251.801 304.206 226.348 311.658 197.083Z" fill="#6153BD"/>
<path d="M176.461 100.27C180 102.822 183.267 104.49 184.356 102.89C183.301 105 181.089 105.613 176.801 104.932C176.638 103.382 176.525 101.827 176.461 100.27Z" fill="#6153BD"/>
<path d="M188.371 64.4039C186.465 61.9878 183.164 60.5246 178.094 61.069C180.34 42.5232 153.899 39.869 152.879 55.3862C139.369 44.8712 117.659 61.1711 132.938 72.4007C124.634 72.9111 121.878 83.9025 130.76 83.9025C110.274 97.8884 126.404 129.025 170.71 99.4842C173.098 97.432 175.244 95.1145 177.107 92.5763C173.33 87.4379 177.55 84.2052 179.115 87.8803C180 89.9901 180.986 86.7573 180.986 84.1371C182.232 84.2108 183.451 84.5349 184.568 85.0899C189.671 82.133 193.074 70.3249 188.371 64.4039Z" fill="#6153BD"/>
<path d="M305.226 44.9729C297.23 37.3504 304.886 29.7279 301.79 21.7651C310.943 25.4062 317.137 34.7642 313.019 43.5777L305.226 44.9729Z" stroke="#120071" stroke-width="0.769171" stroke-linecap="round" stroke-linejoin="round"/>
<path d="M178.128 111.981C179.387 112.089 180.637 112.282 181.871 112.56L200.417 64.2333L287.225 85.2972L259.866 163.496L234.582 155.873C232.502 158.582 230.38 161.259 228.219 163.904L260.036 173.466C264.902 174.93 269.598 173.364 271.742 167.477L298.659 90.0613C300.496 84.7527 299.952 79.6824 291.887 77.7087L201.574 56.2418C195.653 55.1529 192.216 57.637 190.515 62.0608L189.139 65.5998M281.951 128.004C281.784 128.61 281.435 129.149 280.95 129.549C280.465 129.949 279.869 130.19 279.243 130.239C278.722 130.281 278.199 130.188 277.724 129.971C277.249 129.753 276.838 129.418 276.529 128.996C276.221 128.574 276.025 128.081 275.962 127.562C275.898 127.043 275.968 126.517 276.166 126.034C276.332 125.428 276.682 124.888 277.166 124.488C277.651 124.088 278.247 123.847 278.874 123.798C279.395 123.757 279.917 123.849 280.392 124.066C280.867 124.284 281.279 124.62 281.587 125.041C281.896 125.463 282.091 125.957 282.155 126.475C282.218 126.994 282.148 127.52 281.951 128.004Z" stroke="#120071" stroke-width="0.769171" stroke-linejoin="round"/>
<path d="M14.6868 271.946L37.282 239.687" stroke="#120071" stroke-width="0.769171" stroke-linecap="round" stroke-linejoin="round"/>
<path d="M9.85486 244.519L42.1143 267.114" stroke="#120071" stroke-width="0.769171" stroke-linecap="round" stroke-linejoin="round"/>
<path d="M229.648 197.933L251.427 194.088" stroke="#120071" stroke-width="0.769171" stroke-linecap="round" stroke-linejoin="round"/>
<path d="M238.632 185.138L242.443 206.917" stroke="#120071" stroke-width="0.769171" stroke-linecap="round" stroke-linejoin="round"/>
<path d="M302.538 291.411C328.83 291.411 350.145 270.096 350.145 243.805C350.145 217.513 328.83 196.198 302.538 196.198C276.246 196.198 254.932 217.513 254.932 243.805C254.932 270.096 276.246 291.411 302.538 291.411Z" stroke="#120071" stroke-width="0.769171" stroke-linecap="round" stroke-linejoin="round"/>
<path d="M59.707 143.283C70.4566 143.283 79.1716 134.568 79.1716 123.818C79.1716 113.069 70.4566 104.354 59.707 104.354C48.9574 104.354 40.2424 113.069 40.2424 123.818C40.2424 134.568 48.9574 143.283 59.707 143.283Z" stroke="#120071" stroke-width="0.769171" stroke-linecap="round" stroke-linejoin="round"/>
<path d="M143.929 281.371C159.684 284.537 175.744 285.929 191.808 285.522" stroke="#120071" stroke-width="0.769171" stroke-linecap="round" stroke-linejoin="round"/>
<path d="M226.143 282.053C304.811 264.6 340.35 171.935 297.06 94.7465M100.27 266.566C63.5551 248.484 35.3592 216.771 21.697 178.193C-7.09155 99.2455 42.0159 64.2745 88.2237 78.0114C112.28 85.1629 123.954 78.8962 125.451 57.594C126.847 37.7551 140.935 22.8755 182.994 25.4366C219.441 27.6575 261.163 49.0599 284.125 75.8139" stroke="#120071" stroke-width="0.769171" stroke-linecap="round" stroke-linejoin="round"/>
<path d="M69.5758 36.8059L24.6217 44.7347C22.8846 45.0701 21.3491 46.0751 20.3465 47.5328C19.3439 48.9905 18.9548 50.784 19.263 52.5261C19.5712 54.2682 20.5521 55.8193 21.994 56.8445C23.4358 57.8697 25.2229 58.2869 26.9697 58.006L71.9238 50.0772L84.7187 40.9574L69.5758 36.8059Z" stroke="#120071" stroke-width="0.769171" stroke-linecap="round" stroke-linejoin="round"/>
<path d="M26.7329 44.3606L29.0809 57.6319" stroke="#120071" stroke-width="0.769171" stroke-linecap="round" stroke-linejoin="round"/>
<path d="M34.3555 43.0334L36.6694 56.3048" stroke="#120071" stroke-width="0.769171" stroke-linecap="round" stroke-linejoin="round"/>
<path d="M69.5757 36.8059L71.9237 50.0772" stroke="#120071" stroke-width="0.769171" stroke-linecap="round" stroke-linejoin="round"/>
<path d="M305.227 44.9732C305.363 50.9939 305.92 56.9977 306.894 62.9405C309.985 80.5067 315.707 99.0113 318.668 98.5008C321.629 97.9904 320.694 78.6207 317.579 61.0689C316.476 55.1491 314.952 49.3153 313.019 43.6121L305.227 44.9732Z" stroke="#120071" stroke-width="0.769171" stroke-linecap="round" stroke-linejoin="round"/>
<path d="M306.519 60.7622L317.205 58.8906" stroke="#120071" stroke-width="0.769171" stroke-linecap="round" stroke-linejoin="round"/>
<path d="M88.0875 192.863C84.038 192.659 81.2548 191.094 81.4608 189.596C81.6721 187.997 85.5102 186.435 95.3786 186.731C106.54 187.075 110.672 189.385 110.59 191.257C110.532 192.584 108.14 193.707 104.873 193.809" stroke="#120071" stroke-width="0.769171" stroke-linecap="round" stroke-linejoin="round"/>
<path d="M209.094 140.969C211.919 137.192 220.937 127.289 223.557 124.295C229.92 122.559 244.417 129.093 243.294 143.725C236.982 152.97 230.154 161.852 222.842 170.329C214.347 180.211 206.888 181.042 198.069 172.37C192.39 166.786 177.89 146.58 174.827 141.608C175.673 148.129 176.059 154.702 175.984 161.277" stroke="#120071" stroke-width="0.769171" stroke-linecap="round" stroke-linejoin="round"/>
<path d="M212.566 146.073C190.957 114.29 187.792 111.772 173.024 111.772C149.986 111.772 123.168 119.968 100.309 134.265C86.2195 143.075 85.1252 147.476 83.4309 161.046C82.2341 170.518 81.5763 180.05 81.4608 189.596" stroke="#120071" stroke-width="0.769171" stroke-linecap="round" stroke-linejoin="round"/>
<path d="M180.408 149.782C167.375 182.28 163.951 200.081 146.719 272.108C143.463 285.762 139.881 292.52 123.92 297.131C107.242 301.949 73.9654 308.667 69.1333 309.96" stroke="#120071" stroke-width="0.769171" stroke-linecap="round" stroke-linejoin="round"/>
<path d="M59.5374 282.768C59.0001 278.649 60.4902 275.516 62.2938 275.043C64.64 274.427 68.3545 277.868 70.801 290.561C73.3908 303.993 71.3383 309.466 69.1336 309.991C67.7366 310.323 66.1391 308.8 65.3564 306.35" stroke="#120071" stroke-width="0.769171" stroke-linecap="round" stroke-linejoin="round"/>
<path d="M62.2936 275.043C74.2037 272.389 117.659 262.685 120.619 262.01" stroke="#120071" stroke-width="0.769171" stroke-linecap="round" stroke-linejoin="round"/>
<path d="M175.44 162.748C152.028 157.983 125.732 164.419 117.315 186.67C109.934 206.204 112.21 230.84 114.091 263.439" stroke="#120071" stroke-width="0.769171" stroke-linecap="round" stroke-linejoin="round"/>
<path d="M131.168 133.04C134.205 143.927 135.964 155.13 136.409 166.423" stroke="#120071" stroke-width="0.769171" stroke-linecap="round" stroke-linejoin="round"/>
<path d="M110.547 191.264C110.615 182.688 111.397 162.543 111.874 157.983C119.414 155.125 127.105 152.682 134.912 150.667" stroke="#120071" stroke-width="0.769171" stroke-linecap="round" stroke-linejoin="round"/>
<path d="M50.5533 285.014C56.7806 285.028 59.9453 338.269 52.8673 338.235C45.7893 338.201 42.9649 284.996 50.5533 285.014Z" stroke="#120071" stroke-width="0.769171" stroke-linecap="round" stroke-linejoin="round"/>
<path d="M50.5537 285.014C54.4939 284.129 57.8359 283.043 68.0446 280.794" stroke="#120071" stroke-width="0.769171" stroke-linecap="round" stroke-linejoin="round"/>
<path d="M72.0259 300.565C67.1257 301.998 64.7383 304.346 62.838 317.103C61.5306 325.879 59.0949 336.636 52.8676 338.237" stroke="#120071" stroke-width="0.769171" stroke-linecap="round" stroke-linejoin="round"/>
<path d="M198.205 297.434C194.19 296.651 191.656 294.948 191.774 293.112C191.924 290.763 196.37 288.97 208.959 289.982C222.98 291.11 226.109 293.997 226.109 295.937C226.109 297.672 223.244 298.285 220.736 298.285" stroke="#120071" stroke-width="0.769171" stroke-linecap="round" stroke-linejoin="round"/>
<path d="M196.81 308.255C198.443 303.049 248.391 318.056 246.458 323.909C244.959 328.435 194.6 315.299 196.81 308.255Z" stroke="#120071" stroke-width="0.769171" stroke-linecap="round" stroke-linejoin="round"/>
<path d="M196.81 308.255C197.389 304.342 197.797 299.884 199.294 289.808" stroke="#120071" stroke-width="0.769171" stroke-linecap="round" stroke-linejoin="round"/>
<path d="M218.725 291.377C218.691 296.413 220.158 299.48 230.669 306.959C238.908 312.815 247.173 317.678 246.458 323.905" stroke="#120071" stroke-width="0.769171" stroke-linecap="round" stroke-linejoin="round"/>
<path d="M170.199 178.367C184.344 187.38 197.977 197.172 211.034 207.7C224.741 219.108 226.143 223.353 226.143 243.124V295.937" stroke="#120071" stroke-width="0.769171" stroke-linecap="round" stroke-linejoin="round"/>
<path d="M191.774 293.112C192.012 279.467 192.114 239.92 191.774 234.855C181.497 231.316 165.572 225.973 158.187 223.93" stroke="#120071" stroke-width="0.769171" stroke-linecap="round" stroke-linejoin="round"/>
<path d="M164.789 161.386C151.075 178.367 142.432 217.636 134.911 273.342C113.915 279.943 82.1322 287.328 70.6304 289.71" stroke="#120071" stroke-width="0.769171" stroke-linecap="round" stroke-linejoin="round"/>
<path d="M104.599 187.691C104.871 193.034 105.416 206.855 104.701 209.435C103.986 212.016 96.3334 224.614 91.7699 229.989C88.8793 233.392 85.3223 234.167 88.9796 227.097C91.1317 222.873 92.9869 218.504 94.5317 214.022C98.8695 201.673 89.696 199.019 86.0244 203.439C80.415 210.181 76.2133 211.875 78.4359 206.57C79.7917 203.335 80.5117 201.397 81.4645 198.947C82.4173 196.497 88.5426 193.299 88.9509 191.869C89.2787 190.235 89.3931 188.565 89.2912 186.901" stroke="#120071" stroke-width="0.769171" stroke-linecap="round" stroke-linejoin="round"/>
<path d="M92.3071 219.814C89.4902 222.688 86.3099 225.182 82.847 227.232C78.6256 229.706 77.1642 227.403 82.1306 222.775C85.603 219.549 88.734 215.974 91.4743 212.107" stroke="#120071" stroke-width="0.769171" stroke-linecap="round" stroke-linejoin="round"/>
<path d="M88.564 209.639C90.3219 211.383 92.3354 212.849 94.5352 213.986" stroke="#120071" stroke-width="0.769171" stroke-linecap="round" stroke-linejoin="round"/>
<path d="M87.441 217.228C84.2126 218.833 80.7938 220.022 77.2663 220.767C72.6742 221.729 73.2885 219.041 78.1511 216.99C82.058 215.141 85.764 212.895 89.2105 210.286" stroke="#120071" stroke-width="0.769171" stroke-linecap="round" stroke-linejoin="round"/>
<path d="M82.9149 214.506C80.4433 214.914 77.9323 215.05 75.4285 214.914C72.0936 214.506 71.139 212.557 76.2111 211.783C80.2014 211.208 84.0802 210.026 87.7129 208.278C88.1063 205.811 89.0222 203.456 90.3994 201.371" stroke="#120071" stroke-width="0.769171" stroke-linecap="round" stroke-linejoin="round"/>
<path d="M166.865 226.518C166.695 219.134 166.252 198.07 166.865 189.596" stroke="#120071" stroke-width="0.769171" stroke-linecap="round" stroke-linejoin="round"/>
<path d="M119.02 155.431C124.066 150.981 128.828 146.219 133.278 141.173" stroke="#120071" stroke-width="0.769171" stroke-linecap="round" stroke-linejoin="round"/>
<path d="M228.661 103.264L225.975 100.338L223.661 93.2258L230.569 96.1183L262.923 131.27C263.442 131.881 263.705 132.669 263.657 133.469C263.608 134.27 263.253 135.02 262.665 135.565C262.076 136.109 261.3 136.405 260.499 136.391C259.697 136.377 258.932 136.054 258.363 135.49L232.671 107.55" stroke="#120071" stroke-width="0.769171" stroke-linecap="round" stroke-linejoin="round"/>
<path d="M258.028 125.962C256.943 126.162 255.935 126.664 255.122 127.41C254.309 128.156 253.723 129.117 253.431 130.182" stroke="#120071" stroke-width="0.769171" stroke-linecap="round" stroke-linejoin="round"/>
<path d="M259.866 127.969C258.781 128.17 257.775 128.672 256.962 129.418C256.149 130.165 255.564 131.125 255.272 132.189" stroke="#120071" stroke-width="0.769171" stroke-linecap="round" stroke-linejoin="round"/>
<path d="M225.905 124.022C226.245 117.659 225.292 114.222 225.292 110.989C225.292 109.492 227.37 106.463 229.58 101.019C231.045 97.4117 233.932 99.7257 232.745 106.361C231.448 113.61 236.011 117.659 240.197 115.787" stroke="#120071" stroke-width="0.769171" stroke-linecap="round" stroke-linejoin="round"/>
<path d="M237.815 103.979C240.299 104.354 242.409 104.728 243.367 104.966C243.503 106.653 243.503 108.349 243.367 110.036" stroke="#120071" stroke-width="0.769171" stroke-linecap="round" stroke-linejoin="round"/>
<path d="M232.745 98.5098C237.373 98.7139 247.99 99.3265 249.113 100.449C250.814 102.151 251.222 110.454 251.427 113.38" stroke="#120071" stroke-width="0.769171" stroke-linecap="round" stroke-linejoin="round"/>
<path d="M250.78 105.919C256.735 116.706 256.803 118.169 254.217 121.81" stroke="#120071" stroke-width="0.769171" stroke-linecap="round" stroke-linejoin="round"/>
<path d="M250.44 126.987C247.207 131.138 243.455 134.95 242.647 137.025" stroke="#120071" stroke-width="0.769171" stroke-linecap="round" stroke-linejoin="round"/>
<path d="M170.754 99.4572C173.137 97.414 175.28 95.1067 177.141 92.5798C173.398 87.4414 177.569 84.2158 179.149 87.8838C180.059 89.9971 181.02 86.7608 181.02 84.1406C182.266 84.2189 183.483 84.5427 184.602 85.0934C191.783 80.9078 195.628 59.2313 178.103 61.0349C180.34 42.4891 153.865 39.8688 152.878 55.3467C139.369 44.8657 117.658 61.1996 132.937 72.3952C124.634 72.9056 121.878 83.897 130.76 83.897C110.233 97.8937 126.415 129.08 170.754 99.4572Z" stroke="#120071" stroke-width="0.769171" stroke-linecap="round" stroke-linejoin="round"/>
<path d="M150.905 114.018C161.488 107.961 173.909 97.5407 177.141 92.5796" stroke="#120071" stroke-width="0.769171" stroke-linecap="round" stroke-linejoin="round"/>
<path d="M177.788 111.908C177.335 109.58 176.994 107.252 176.76 104.904C186.875 106.515 185.41 101.09 184.559 85.0933" stroke="#120071" stroke-width="0.769171" stroke-linecap="round" stroke-linejoin="round"/>
<path d="M176.76 104.903C176.605 103.362 176.494 101.817 176.427 100.27C179.966 102.856 183.233 104.49 184.322 102.856" stroke="#120071" stroke-width="0.769171" stroke-linecap="round" stroke-linejoin="round"/>
</svg>
