<svg width="360" height="360" viewBox="0 0 360 360" fill="none" xmlns="http://www.w3.org/2000/svg">
<path d="M205.561 119.758C205.992 119.361 206.296 118.845 206.435 118.275C206.574 117.706 206.542 117.108 206.342 116.557C206.193 116.145 205.953 115.77 205.642 115.462C205.33 115.153 204.953 114.918 204.539 114.772C204.125 114.627 203.684 114.576 203.248 114.622C202.812 114.669 202.391 114.811 202.017 115.04C201.642 115.268 201.322 115.576 201.081 115.942C200.839 116.308 200.682 116.723 200.621 117.157C200.559 117.591 200.595 118.034 200.725 118.452C200.855 118.871 201.077 119.256 201.374 119.579C201.766 120.018 202.281 120.329 202.852 120.47C203.424 120.611 204.025 120.576 204.576 120.37C204.941 120.234 205.276 120.024 205.561 119.758ZM196.656 168.272C196.841 167.757 196.881 167.202 196.774 166.665C196.666 166.129 196.414 165.632 196.046 165.228C195.787 164.934 195.471 164.695 195.118 164.526C194.764 164.357 194.381 164.261 193.989 164.245C193.598 164.228 193.207 164.291 192.841 164.429C192.474 164.567 192.139 164.778 191.856 165.048C191.437 165.458 191.14 165.978 191.002 166.548C190.863 167.118 190.887 167.715 191.072 168.272C192.931 168.38 194.795 168.38 196.656 168.272ZM198.931 133.72C199.364 133.324 199.669 132.808 199.807 132.239C199.946 131.669 199.912 131.07 199.71 130.52C199.559 130.11 199.318 129.738 199.006 129.432C198.695 129.126 198.319 128.892 197.906 128.748C197.493 128.604 197.054 128.554 196.619 128.6C196.184 128.646 195.765 128.787 195.392 129.014C195.018 129.242 194.7 129.549 194.459 129.913C194.218 130.278 194.061 130.692 193.999 131.124C193.937 131.557 193.971 131.998 194.099 132.416C194.228 132.834 194.447 133.218 194.742 133.541C195.133 133.981 195.649 134.291 196.22 134.433C196.792 134.574 197.393 134.539 197.944 134.333C198.311 134.197 198.646 133.989 198.931 133.72ZM218.562 140.612C219.14 140.078 219.483 139.338 219.517 138.552C219.543 137.966 219.394 137.386 219.089 136.885C218.783 136.384 218.336 135.986 217.803 135.741C217.271 135.493 216.678 135.41 216.098 135.5C215.519 135.591 214.979 135.852 214.548 136.249C214.113 136.644 213.805 137.159 213.666 137.73C213.526 138.301 213.56 138.9 213.764 139.451C213.966 140.002 214.328 140.48 214.803 140.823C215.278 141.167 215.845 141.361 216.431 141.38C217.213 141.413 217.98 141.137 218.562 140.612ZM221.005 124.035C221.436 123.637 221.74 123.122 221.879 122.552C222.018 121.983 221.986 121.385 221.786 120.834C221.636 120.421 221.397 120.047 221.085 119.739C220.774 119.43 220.397 119.195 219.983 119.049C219.569 118.904 219.128 118.853 218.692 118.899C218.255 118.945 217.835 119.088 217.461 119.317C217.086 119.545 216.766 119.852 216.525 120.219C216.283 120.585 216.126 121 216.064 121.434C216.003 121.868 216.039 122.311 216.169 122.729C216.299 123.148 216.521 123.533 216.818 123.855C217.362 124.414 218.1 124.744 218.88 124.778C219.66 124.811 220.423 124.545 221.014 124.035H221.005ZM243.081 141.314C243.41 141.04 243.652 140.677 243.779 140.266C243.652 139.967 243.507 139.676 243.344 139.394V139.308C242.824 138.255 242.241 137.235 241.598 136.253C241.598 136.241 241.596 136.23 241.593 136.219C241.587 136.208 241.581 136.199 241.573 136.19C241.564 136.182 241.555 136.176 241.544 136.172C241.093 136.08 240.626 136.094 240.181 136.214C239.736 136.334 239.325 136.557 238.981 136.863C238.537 137.252 238.222 137.768 238.078 138.341C237.935 138.914 237.97 139.517 238.179 140.069C238.319 140.437 238.53 140.77 238.802 141.053C239.344 141.639 240.092 141.994 240.889 142.043C241.686 142.091 242.471 141.83 243.081 141.314ZM235.917 125.87C234.695 123.34 234.348 122.903 233.212 120.809L233.125 120.897C232.584 121.437 232.273 122.166 232.257 122.93C232.241 123.694 232.521 124.435 233.039 124.998C233.386 125.404 233.843 125.702 234.355 125.856C234.867 126.01 235.412 126.014 235.926 125.867L235.917 125.87ZM222.305 155.363C222.601 155.686 222.965 155.94 223.371 156.105C223.777 156.271 224.215 156.344 224.653 156.32C225.09 156.296 225.517 156.174 225.902 155.965C226.287 155.755 226.621 155.463 226.879 155.108C227.227 154.636 227.426 154.071 227.451 153.485C227.476 152.899 227.326 152.319 227.021 151.818C226.794 151.444 226.486 151.124 226.12 150.883C225.754 150.641 225.339 150.484 224.905 150.422C224.471 150.361 224.029 150.396 223.61 150.526C223.192 150.656 222.807 150.877 222.484 151.174C222.048 151.568 221.74 152.083 221.6 152.654C221.461 153.225 221.495 153.825 221.7 154.376C221.838 154.741 222.046 155.074 222.314 155.359L222.305 155.363ZM196.303 146.463C195.872 146.86 195.568 147.376 195.429 147.945C195.29 148.515 195.323 149.113 195.523 149.664C195.673 150.076 195.912 150.449 196.224 150.757C196.536 151.065 196.913 151.3 197.327 151.445C197.74 151.59 198.181 151.642 198.617 151.595C199.053 151.549 199.474 151.407 199.848 151.179C200.222 150.951 200.542 150.644 200.783 150.278C201.024 149.912 201.181 149.497 201.243 149.063C201.304 148.629 201.269 148.187 201.139 147.768C201.009 147.349 200.787 146.965 200.491 146.642C200.231 146.352 199.916 146.116 199.564 145.95C199.212 145.783 198.829 145.689 198.44 145.673C198.051 145.656 197.662 145.717 197.297 145.852C196.932 145.987 196.597 146.194 196.312 146.46L196.303 146.463ZM143.696 151.344C143.264 151.74 142.959 152.256 142.82 152.825C142.681 153.395 142.714 153.993 142.915 154.544C143.117 155.095 143.477 155.574 143.95 155.92C144.424 156.266 144.989 156.463 145.575 156.487C146.161 156.512 146.74 156.363 147.241 156.059C147.742 155.754 148.141 155.308 148.388 154.777C148.635 154.245 148.72 153.653 148.63 153.074C148.541 152.494 148.282 151.955 147.886 151.523C147.625 151.231 147.309 150.995 146.956 150.827C146.603 150.66 146.219 150.565 145.829 150.549C145.438 150.532 145.048 150.594 144.682 150.73C144.316 150.867 143.981 151.075 143.696 151.344ZM160.532 124.206C160.964 123.81 161.269 123.294 161.407 122.725C161.546 122.155 161.513 121.557 161.312 121.007C161.111 120.456 160.752 119.977 160.278 119.631C159.805 119.284 159.24 119.086 158.654 119.061C158.069 119.036 157.489 119.185 156.988 119.49C156.487 119.795 156.087 120.241 155.84 120.772C155.593 121.304 155.509 121.897 155.599 122.476C155.688 123.056 155.948 123.596 156.344 124.027C156.887 124.589 157.625 124.921 158.405 124.955C159.185 124.988 159.949 124.72 160.537 124.206H160.532ZM144.913 132.932C144.913 132.345 144.739 131.771 144.413 131.283C144.087 130.794 143.624 130.414 143.081 130.189C142.539 129.964 141.942 129.905 141.366 130.02C140.79 130.134 140.262 130.417 139.846 130.832C139.431 131.247 139.149 131.776 139.034 132.352C138.92 132.928 138.979 133.525 139.203 134.067C139.428 134.609 139.809 135.073 140.297 135.399C140.786 135.725 141.36 135.898 141.947 135.898C142.337 135.902 142.725 135.828 143.087 135.681C143.449 135.533 143.778 135.315 144.054 135.039C144.331 134.763 144.55 134.435 144.698 134.074C144.846 133.712 144.921 133.325 144.918 132.934L144.913 132.932ZM173.098 128.745C173.494 129.176 174.01 129.481 174.579 129.619C175.149 129.757 175.746 129.724 176.297 129.523C176.847 129.322 177.326 128.962 177.672 128.489C178.018 128.016 178.216 127.451 178.241 126.865C178.266 126.28 178.117 125.7 177.813 125.199C177.508 124.698 177.062 124.299 176.531 124.052C175.999 123.804 175.407 123.72 174.828 123.809C174.248 123.899 173.709 124.158 173.277 124.554C172.988 124.817 172.754 125.134 172.589 125.487C172.424 125.841 172.33 126.224 172.314 126.614C172.298 127.004 172.359 127.393 172.495 127.759C172.63 128.125 172.837 128.461 173.103 128.747L173.098 128.745ZM151.987 134.508C151.555 134.905 151.25 135.42 151.111 135.99C150.972 136.559 151.006 137.157 151.207 137.708C151.408 138.259 151.767 138.738 152.24 139.084C152.714 139.43 153.279 139.629 153.864 139.654C154.45 139.679 155.03 139.529 155.531 139.225C156.032 138.92 156.431 138.474 156.679 137.942C156.926 137.411 157.01 136.818 156.92 136.238C156.83 135.659 156.571 135.119 156.174 134.687C155.64 134.114 154.901 133.773 154.117 133.74C153.334 133.706 152.569 133.982 151.987 134.508ZM171.706 155.973C171.275 156.37 170.971 156.885 170.833 157.454C170.694 158.023 170.728 158.621 170.929 159.171C171.13 159.721 171.489 160.199 171.962 160.545C172.435 160.891 172.999 161.089 173.585 161.114C174.17 161.139 174.749 160.99 175.25 160.685C175.75 160.381 176.149 159.936 176.396 159.405C176.644 158.874 176.728 158.281 176.639 157.703C176.55 157.124 176.291 156.584 175.895 156.153C175.635 155.861 175.319 155.624 174.966 155.457C174.613 155.289 174.229 155.194 173.839 155.177C173.449 155.16 173.059 155.222 172.692 155.358C172.326 155.494 171.991 155.702 171.706 155.97V155.973ZM172.229 112.782C172.75 112.301 173.081 111.648 173.162 110.943C173.242 110.238 173.066 109.528 172.666 108.942C170.803 109.278 168.987 109.834 167.255 110.6C167.259 111.343 167.54 112.058 168.042 112.606C168.301 112.899 168.617 113.137 168.97 113.305C169.324 113.473 169.708 113.568 170.099 113.584C170.49 113.6 170.88 113.537 171.246 113.398C171.612 113.26 171.946 113.049 172.229 112.778V112.782ZM170.223 144.357C170.811 144.357 171.385 144.183 171.874 143.857C172.362 143.531 172.743 143.067 172.968 142.524C173.193 141.981 173.252 141.384 173.137 140.807C173.022 140.231 172.739 139.702 172.323 139.287C171.907 138.871 171.378 138.589 170.801 138.475C170.225 138.36 169.628 138.42 169.085 138.645C168.542 138.871 168.079 139.252 167.753 139.742C167.427 140.231 167.254 140.805 167.255 141.393C167.264 142.177 167.579 142.927 168.134 143.481C168.689 144.036 169.439 144.351 170.223 144.359V144.357ZM292.548 237.636C291.537 230.538 289.571 223.61 286.702 217.039C284.625 213.019 284.695 211.194 279.286 212.676C274.835 213.898 242.9 223.234 239.759 224.544C239.148 202.556 236.318 188.568 229.027 175.157C227.553 172.447 224.576 169.485 220.475 164.948C207.911 170.882 174.928 167.914 174.928 167.914C174.928 167.914 163.039 213.982 159.221 235.712C157.035 246.075 158.323 256.87 162.885 266.428C176.742 297.054 182.706 309.133 190.198 324.016C192.526 328.653 195.243 326.702 198.836 324.195C202.486 321.643 212.709 314.597 212.709 314.597C213.658 314.103 214.398 313.286 214.797 312.294C215.198 311.302 215.231 310.2 214.89 309.186C209.061 289.801 202.246 270.725 194.473 252.034C192.809 248.022 193.775 245.751 195.258 242.785C198.225 236.851 203.81 224.984 203.81 224.984C206.69 232.575 209.65 241.999 215.152 251.423C221.779 262.769 229.285 267.286 240.718 264.512C253.017 261.526 286.878 246.8 289.67 245.577C293.256 244.014 293.234 242.095 292.555 237.641L292.548 237.636Z" fill="#FECFC4"/>
<path d="M117.783 199.249C118.741 200.906 120.922 205.444 123.104 209.895C133.739 204.729 124.121 195.531 117.783 199.249Z" fill="#6153BD"/>
<path d="M138.374 165.313C138.725 163.321 138.959 161.31 139.072 159.292C137.939 159.99 133.139 162.084 133.139 162.084C134.568 163.604 136.374 164.718 138.374 165.313Z" fill="#6153BD"/>
<path d="M304.161 58.3288C305.038 58.8384 306.007 59.1702 307.012 59.3053C308.018 59.4404 309.04 59.3763 310.02 59.1164C311.001 58.8565 311.92 58.4061 312.727 57.7908C313.533 57.1755 314.211 56.4074 314.72 55.5304C315.23 54.6533 315.562 53.6845 315.697 52.6792C315.832 51.6739 315.768 50.6519 315.508 49.6714C315.248 48.6909 314.797 47.7712 314.182 46.9648C313.567 46.1584 312.799 45.4811 311.922 44.9715C310.15 43.9424 308.043 43.6591 306.063 44.1839C304.083 44.7087 302.392 45.9987 301.363 47.77C300.334 49.5413 300.05 51.6488 300.575 53.629C301.1 55.6091 302.39 57.2997 304.161 58.3288Z" fill="#6153BD"/>
<path d="M29.5723 208.734C29.5723 208.734 28.8129 209.103 26.4255 210.329C20.0549 213.602 25.1933 223.989 31.7466 220.717C34.1608 219.51 35.7459 218.52 35.7459 218.52C33.1739 215.612 31.0892 212.307 29.5723 208.734Z" fill="#6153BD"/>
<path d="M159.927 142.968C162.461 133.522 164.487 129.03 152.422 158.15C162.989 153.015 161.897 153.601 162.02 153.35C160.881 151.905 160.098 150.213 159.735 148.409C159.371 146.605 159.437 144.741 159.927 142.968Z" fill="#6153BD"/>
<path d="M79.826 183.019C82.0037 185.939 83.4383 189.345 84.0062 192.943C86.176 192.161 88.2794 191.205 90.2962 190.086C89.5929 188.402 88.7768 186.767 87.8533 185.193C87.4976 184.495 86.9996 183.879 86.3913 183.385C85.7831 182.892 85.0782 182.531 84.3219 182.326C83.5657 182.121 82.7749 182.077 82.0006 182.196C81.2262 182.316 80.4855 182.596 79.826 183.019Z" fill="#6153BD"/>
<path d="M303.9 213.557C300.953 208.103 296.886 209.425 291.334 212.511C294.379 214.169 297.762 215.761 298.926 217.223C302.905 222.999 305.967 229.357 308.001 236.07C308.272 237.356 308.281 238.684 308.025 239.973C307.77 241.263 307.257 242.488 306.516 243.574C311.927 247.502 315.944 250.467 315.504 244.971C314.898 237.379 308.314 221.729 303.9 213.557Z" fill="#6153BD"/>
<path d="M222.751 99.1659C222.49 91.3983 214.812 90.0031 210.623 90.5279C210.802 80.4051 203.119 77.613 198.756 76.8267C196.465 66.2097 177.919 61.3758 172.666 70.8072C171.165 73.4937 172.405 77.3515 174.76 80.0559C166.623 78.5765 161.317 88.6402 166.733 94.8908C155.215 95.5874 154.167 107.978 160.625 113.737C173.187 106.885 180.432 108.968 182.579 107.503C183.835 106.36 185.004 105.126 186.077 103.81C186.21 103.686 186.302 103.525 186.343 103.349C186.384 103.172 186.371 102.987 186.306 102.818C186.239 102.649 186.124 102.504 185.974 102.401C185.825 102.298 185.648 102.242 185.466 102.239C183.006 102.239 178.356 103.07 175.958 101.702C172.184 99.5527 172.48 96.9737 175.023 90.9559C176.905 86.4963 179.413 80.0487 184.096 80.0487C189.856 80.0487 191.287 83.7113 191.513 86.9423C191.721 89.9064 189.088 93.1123 190.641 94.1833C191.259 94.6113 192.038 94.0042 192.998 93.4848C197.095 91.6652 199.551 98.0143 194.044 100.989C193.091 101.47 192.253 102.151 191.588 102.985C190.923 103.82 190.447 104.789 190.191 105.825C189.933 106.86 189.902 107.938 190.1 108.986C190.298 110.034 190.721 111.027 191.339 111.896C193.814 115.801 201.286 116.696 204.079 111.287C205.61 112.921 207.723 113.885 209.961 113.971C212.198 114.057 214.38 113.257 216.032 111.746C217.125 110.745 217.937 109.475 218.389 108.064C225.194 112.251 229.034 114.69 231.128 118.011C237.411 112.167 233.222 100.038 222.751 99.1659Z" fill="#6153BD"/>
<path d="M216.991 318.877C215.596 322.366 214.45 326.456 213.066 327.952C207.929 332.719 202.064 336.637 195.693 339.556C193.557 340.36 191.202 340.36 189.066 339.556C185.751 345.926 182.866 351.054 188.631 349.585C195.953 347.726 211.355 336.633 218.734 330.912C223.892 326.924 221.048 323.87 216.991 318.877Z" fill="#6153BD"/>
<path d="M220.477 165.044C215.037 158.674 210.161 151.842 205.905 144.627C207.127 150.824 212.013 161.555 214.37 166.703C216.445 166.307 218.486 165.752 220.477 165.044Z" fill="#6153BD"/>
<path d="M190.03 107.367C189.951 106.03 190.264 104.698 190.93 103.536C191.597 102.374 192.588 101.431 193.782 100.823C195.978 99.5389 197.104 98.5557 197.272 96.3742C197.452 94.0191 195.879 92.4663 194.131 92.7922C192.65 93.0716 191.496 94.5528 190.64 93.6645C189.483 92.4645 191.769 89.5649 191.688 86.7727C191.771 85.3337 191.381 83.907 190.578 82.7105C189.774 81.5139 188.601 80.6132 187.237 80.146C183.061 78.8923 180.519 80.4075 178.512 83.8981C176.227 87.7351 174.497 91.8764 173.373 96.1987C172.657 99.5121 174.595 102.039 178.347 102.569C179.767 102.722 181.195 102.782 182.622 102.748L180.878 107.634L177.561 107.992C177.561 107.992 176.76 110.955 176.339 112.355C174.799 117.487 177.385 122.87 182.011 122.913C188.468 122.974 191.561 118.565 193.006 114.363C193.096 114.102 193.185 113.84 193.268 113.491C192.29 112.791 191.489 111.873 190.927 110.811C190.365 109.748 190.058 108.569 190.03 107.367Z" stroke="#120071" stroke-width="0.711835" stroke-linecap="round" stroke-linejoin="round"/>
<path d="M161.847 153.528L138.461 164.955C138.461 164.955 140.252 158.839 138.2 148.639C136.67 142.25 134.596 136.003 132.001 129.968L154.688 116.879C165.595 110.772 169.958 108.852 177.636 107.978" stroke="#120071" stroke-width="0.711835" stroke-linecap="round" stroke-linejoin="round"/>
<path d="M164.988 123.597L159.839 142.969C159.365 144.758 159.308 146.632 159.672 148.447C160.035 150.262 160.809 151.969 161.934 153.439C162.02 153.527 162.113 153.7 162.196 153.788C164.726 156.93 168.822 161.466 175.021 167.758C213.415 169.59 231.128 168.367 244.827 142.018C238.718 130.935 231.342 117.875 231.149 117.571C229.389 114.789 226.541 112.638 221.703 109.733C220.665 109.106 219.61 108.424 218.388 107.638C217.934 109.047 217.119 110.313 216.026 111.311C214.932 112.31 213.597 113.005 212.152 113.329C210.708 113.655 209.204 113.598 207.788 113.165C206.372 112.733 205.094 111.939 204.078 110.861C201.897 115.224 196.574 115.486 193.259 113.392" stroke="#120071" stroke-width="0.711835" stroke-linecap="round" stroke-linejoin="round"/>
<path d="M182.787 136.686L181.829 144.626C181.615 146.474 181.826 148.347 182.447 150.102C183.068 151.856 184.082 153.445 185.411 154.748C185.498 154.834 185.581 154.927 185.76 155.106C186.698 156.002 187.766 156.939 188.984 157.985" stroke="#120071" stroke-width="0.711835" stroke-linecap="round" stroke-linejoin="round"/>
<path d="M231.178 117.609C232.004 116.893 232.679 116.02 233.165 115.041C233.65 114.062 233.937 112.997 234.008 111.906C234.194 109.524 233.655 107.142 232.46 105.073C231.266 103.004 229.474 101.345 227.318 100.315C225.888 99.6299 224.335 99.2395 222.751 99.1667C222.751 93.9316 218.127 89.9162 210.623 90.5287C211.233 84.5073 206.783 77.963 198.755 76.8275C196.662 69.0635 187.848 65.478 182.875 65.6589C175.981 65.9096 171.591 69.6761 172.143 74.2109C172.435 76.3601 173.379 78.3696 174.847 79.9689C174.33 79.8669 173.804 79.807 173.277 79.7898C172.119 79.8106 170.976 80.0597 169.915 80.523C168.853 80.9863 167.894 81.6546 167.091 82.4896C166.289 83.3246 165.659 84.3098 165.238 85.3888C164.817 86.4678 164.614 87.6192 164.639 88.7771C164.654 90.9485 165.425 93.0467 166.82 94.7107C154.691 95.4092 154.692 108.68 160.711 113.557" stroke="#120071" stroke-width="0.711835" stroke-linecap="round" stroke-linejoin="round"/>
<path d="M104.753 94.6722C99.7113 86.7596 97.5388 82.6725 97.6248 80.2314C97.7107 77.7902 99.457 77.2655 100.849 78.5729C106.89 84.595 112.462 91.0711 117.514 97.9444C119.693 101.96 120.584 107.274 122.837 112.167C124.243 115.211 131.999 129.969 131.999 129.969" stroke="#120071" stroke-width="0.711835" stroke-linecap="round" stroke-linejoin="round"/>
<path d="M110.975 114.436C108.658 111.167 106.889 107.541 105.74 103.703C100.766 102.22 98.0636 100.996 96.9281 99.6013C95.361 97.6795 96.0541 95.9369 98.0618 95.9369C103.14 95.8028 108.214 96.3308 113.156 97.5076" stroke="#120071" stroke-width="0.711835" stroke-linecap="round" stroke-linejoin="round"/>
<path d="M99.4751 95.9441C93.0597 88.5688 89.1607 83.2853 88.987 80.8424C88.8133 78.3994 90.3947 77.683 92.0317 78.8347C93.8782 80.126 96.2208 82.1498 98.6584 84.2453" stroke="#120071" stroke-width="0.711835" stroke-linecap="round" stroke-linejoin="round"/>
<path d="M87.4161 88.6082C85.8454 87.8202 84.5594 88.9485 85.1487 91.3126C86.1463 95.3173 91.007 103.085 93.1759 106.495C96.7741 112.154 99.9961 113.91 101.028 118.624C111.288 165.449 121.352 166.771 130.259 163.386C134.183 161.894 139.16 159.372 139.16 159.372" stroke="#120071" stroke-width="0.711835" stroke-linecap="round" stroke-linejoin="round"/>
<path d="M95.6098 100.178C89.5598 92.5627 85.9384 87.1037 85.8453 84.6805C85.7522 82.2573 87.4053 81.5534 88.9867 82.7606C89.3342 83.0256 89.6852 83.3713 90.1222 83.7205" stroke="#120071" stroke-width="0.711835" stroke-linecap="round" stroke-linejoin="round"/>
<path d="M102.109 96.0019C104.164 94.8991 106.28 93.9143 108.446 93.0521" stroke="#120071" stroke-width="0.711835" stroke-linecap="round" stroke-linejoin="round"/>
<path d="M92.9144 102.394C94.1283 101.307 95.4089 100.298 96.749 99.3722" stroke="#120071" stroke-width="0.711835" stroke-linecap="round" stroke-linejoin="round"/>
<path d="M271.622 111.023C276.415 104.049 278.464 100.3 278.428 97.9484C278.383 95.5054 276.773 94.9037 275.287 96.2021C269.025 102.003 263.217 108.275 257.914 114.963C255.636 118.885 254.511 124.124 252.068 129.011C251.115 130.915 247.367 137.519 244.825 142.012" stroke="#120071" stroke-width="0.711835" stroke-linecap="round" stroke-linejoin="round"/>
<path d="M268.909 133.63C269.041 129.645 268.511 125.664 267.338 121.853C270.655 117.839 272.215 115.394 272.399 113.56C272.647 111.118 271.079 110.055 269.433 111.119C265.913 113.326 262.637 115.901 259.66 118.799" stroke="#120071" stroke-width="0.711835" stroke-linecap="round" stroke-linejoin="round"/>
<path d="M273.836 116.037C276.155 112.86 276.492 112.484 278.595 109.548C281.36 105.691 284.064 104.552 285.925 102.384C287.895 100.092 286.966 97.3105 284.79 98.1093C280.592 99.6531 279.381 100.117 277.2 101.949" stroke="#120071" stroke-width="0.711835" stroke-linecap="round" stroke-linejoin="round"/>
<path d="M276.775 118.697C279.037 116 280.516 114.171 281.648 112.951C283.917 110.509 286.722 110.704 289.153 109.199C291.52 107.736 291.418 104.464 289.153 104.75C283.385 105.476 281.989 105.71 280.776 106.932" stroke="#120071" stroke-width="0.711835" stroke-linecap="round" stroke-linejoin="round"/>
<path d="M205.91 144.627C210.512 152.502 215.89 159.897 221.965 166.701C226.874 172.092 233.571 177.608 237.061 179.094C245.875 182.841 262.164 182.641 273.796 136.075C274.776 132.152 277.312 130.856 279.904 126.65C282.637 122.218 281.978 120.179 284.267 117.23C285.218 115.999 287.68 116.374 290.2 114.959C292.654 113.581 292.733 110.347 290.379 110.684C284.625 111.502 283.215 111.382 282.091 112.602" stroke="#120071" stroke-width="0.711835" stroke-linecap="round" stroke-linejoin="round"/>
<path d="M279.12 121.765C277.327 118.952 274.926 116.576 272.095 114.812" stroke="#120071" stroke-width="0.711835" stroke-linecap="round" stroke-linejoin="round"/>
<path d="M174.847 168.098C174.847 168.098 162.959 214.165 159.14 235.897C156.953 246.259 158.242 257.054 162.807 266.61C176.662 297.237 182.628 309.315 190.118 324.2C192.446 328.835 195.165 326.887 198.756 324.379C202.406 321.829 212.629 314.781 212.629 314.781C213.579 314.289 214.321 313.472 214.721 312.48C215.122 311.487 215.153 310.384 214.81 309.371C208.973 289.987 202.158 270.912 194.393 252.218C192.731 248.206 193.694 245.935 195.179 242.969C198.145 237.036 203.729 225.168 203.729 225.168" stroke="#120071" stroke-width="0.711835" stroke-linecap="round" stroke-linejoin="round"/>
<path d="M196.137 200.383C205.91 232.668 208.495 240.02 215.073 251.516C221.58 262.88 229.204 267.379 240.638 264.603C252.937 261.619 286.805 246.908 289.59 245.668C293.265 244.033 293.189 242.086 292.555 237.641C291.585 230.535 289.617 223.601 286.71 217.045C284.632 213.024 284.702 211.199 279.293 212.682C274.842 213.903 242.907 223.24 239.766 224.549C239.155 202.561 235.315 180.311 224.583 169.404" stroke="#120071" stroke-width="0.711835" stroke-linecap="round" stroke-linejoin="round"/>
<path d="M193.957 326.992C192.91 336.764 179.21 352.034 188.635 349.679C195.963 347.847 211.359 336.726 218.738 331.006C221.193 329.102 222.755 326.815 220.221 323.065C218.109 320.076 215.744 317.273 213.153 314.688" stroke="#120071" stroke-width="0.711835" stroke-linecap="round" stroke-linejoin="round"/>
<path d="M292.381 236.331C302.769 237.205 316.392 254.917 315.591 244.883C314.993 237.377 308.382 221.654 303.987 213.559C302.515 210.847 300.405 208.723 295.697 210.503C292.35 211.895 289.137 213.589 286.099 215.565" stroke="#120071" stroke-width="0.711835" stroke-linecap="round" stroke-linejoin="round"/>
<path d="M75.0259 177.523C76.6683 176.682 78.4611 176.175 80.3007 176.032C82.1402 175.888 83.9899 176.111 85.7428 176.687C87.4957 177.263 89.1169 178.181 90.5127 179.388C91.9084 180.595 93.051 182.067 93.8744 183.718C94.3293 184.667 95.7066 187.382 95.7066 187.382" stroke="#120071" stroke-width="0.711835" stroke-linecap="round" stroke-linejoin="round"/>
<path d="M137.328 237.641L144.134 250.903C145.84 254.237 146.155 258.111 145.01 261.677C143.865 265.242 141.353 268.209 138.024 269.925L77.734 300.903C71.8672 303.921 65.0419 304.486 58.7588 302.473C52.4756 300.46 47.249 296.034 44.228 290.169L11.4169 226.028C9.71078 222.695 9.39558 218.821 10.5404 215.256C11.6851 211.691 14.1965 208.725 17.5242 207.008L27.9944 201.597" stroke="#120071" stroke-width="0.711835" stroke-linecap="round" stroke-linejoin="round"/>
<path d="M35.4126 218.269C51.8164 209.807 95.7066 187.382 95.7066 187.382C99.0398 185.675 102.914 185.36 106.479 186.505C110.044 187.649 113.01 190.161 114.727 193.489L123.104 209.807" stroke="#120071" stroke-width="0.711835" stroke-linecap="round" stroke-linejoin="round"/>
<path d="M117.782 199.249C118.63 198.812 119.555 198.547 120.506 198.468C121.456 198.39 122.412 198.499 123.32 198.79C124.228 199.082 125.07 199.55 125.796 200.168C126.523 200.786 127.12 201.541 127.554 202.39L140.643 227.781C141.08 228.629 141.346 229.554 141.425 230.505C141.503 231.455 141.394 232.412 141.102 233.32C140.81 234.228 140.342 235.069 139.724 235.795C139.106 236.522 138.351 237.119 137.501 237.553L137.414 237.641L111.942 250.729C111.094 251.166 110.169 251.431 109.219 251.51C108.269 251.589 107.312 251.479 106.404 251.188C105.496 250.896 104.655 250.428 103.928 249.81C103.202 249.193 102.604 248.437 102.17 247.588L94.4923 232.755C94.0544 231.908 93.788 230.983 93.7085 230.033C93.6289 229.083 93.7378 228.126 94.0289 227.218C94.3199 226.311 94.7874 225.469 95.4045 224.742C96.0216 224.015 96.7761 223.418 97.6248 222.983L123.279 209.809" stroke="#120071" stroke-width="0.711835" stroke-linecap="round" stroke-linejoin="round"/>
<path d="M127.554 202.387C128.69 204.654 126.77 207.971 123.279 209.804" stroke="#120071" stroke-width="0.711835" stroke-linecap="round" stroke-linejoin="round"/>
<path d="M112.895 241.742C115.279 241.742 117.565 240.795 119.251 239.11C120.936 237.424 121.883 235.138 121.883 232.754C121.883 230.37 120.936 228.084 119.251 226.398C117.565 224.713 115.279 223.766 112.895 223.766C110.511 223.766 108.225 224.713 106.539 226.398C104.854 228.084 103.907 230.37 103.907 232.754C103.907 235.138 104.854 237.424 106.539 239.11C108.225 240.795 110.511 241.742 112.895 241.742Z" stroke="#120071" stroke-width="0.711835" stroke-linecap="round" stroke-linejoin="round"/>
<path d="M58.1852 170.629C52.5157 170.261 46.866 171.601 41.9662 174.477C37.0664 177.353 33.1416 181.632 30.6989 186.762C28.2562 191.891 27.4078 197.636 28.2634 203.252C29.1191 208.869 31.6393 214.1 35.4986 218.27L84.2747 193.316C82.995 187.206 79.7531 181.683 75.043 177.587C70.3329 173.491 64.4129 171.048 58.1852 170.629Z" stroke="#120071" stroke-width="0.711835" stroke-linecap="round" stroke-linejoin="round"/>
<path d="M35.6705 207.538C34.3369 204.401 33.7684 200.991 34.012 197.591C34.2839 193.512 35.6638 189.585 38.0031 186.232C40.3424 182.88 43.5524 180.229 47.2869 178.567" stroke="#120071" stroke-width="0.711835" stroke-linecap="round" stroke-linejoin="round"/>
<path d="M78.5132 196.195C78.2469 193.921 77.5977 191.709 76.5933 189.651" stroke="#120071" stroke-width="0.711835" stroke-linecap="round" stroke-linejoin="round"/>
<path d="M59.0592 176.824C62.6681 177.254 66.1157 178.572 69.0888 180.662" stroke="#120071" stroke-width="0.711835" stroke-linecap="round" stroke-linejoin="round"/>
<path d="M43.9629 151.257C61.9374 151.257 76.509 136.686 76.509 118.711C76.509 100.737 61.9374 86.165 43.9629 86.165C25.9884 86.165 11.4169 100.737 11.4169 118.711C11.4169 136.686 25.9884 151.257 43.9629 151.257Z" stroke="#120071" stroke-width="0.711835" stroke-linecap="round" stroke-linejoin="round"/>
<path d="M18.6685 122.899C19.4448 127.512 21.4633 131.825 24.5072 135.376C27.551 138.928 31.5051 141.582 35.9444 143.055C39.6518 144.291 43.592 144.651 47.4624 144.103" stroke="#120071" stroke-width="0.711835" stroke-linecap="round" stroke-linejoin="round"/>
<path d="M20.1426 109.288C21.6734 105.408 24.1334 101.964 27.3066 99.2579" stroke="#120071" stroke-width="0.711835" stroke-linecap="round" stroke-linejoin="round"/>
<path d="M60.1051 138.605C63.3485 136.01 65.8979 132.652 67.5252 128.83" stroke="#120071" stroke-width="0.711835" stroke-linecap="round" stroke-linejoin="round"/>
<path d="M39.4263 93.4947C42.8465 92.874 46.3573 92.9574 49.7442 93.7399C53.131 94.5223 56.3227 95.9874 59.124 98.0456C61.9253 100.104 64.2773 102.712 66.0362 105.71C67.7952 108.708 68.9241 112.033 69.3539 115.483" stroke="#120071" stroke-width="0.711835" stroke-linecap="round" stroke-linejoin="round"/>
<path d="M324.405 141.747C328.444 143.66 331.927 146.573 334.524 150.21C337.121 153.847 338.746 158.087 339.244 162.528C339.742 166.969 339.097 171.464 337.37 175.586C335.643 179.708 332.892 183.32 329.377 186.08C325.86 188.838 321.698 190.653 317.284 191.351C312.869 192.049 308.35 191.608 304.154 190.07C299.959 188.53 296.227 185.943 293.312 182.556C290.396 179.168 288.395 175.093 287.496 170.715C286.955 168.164 286.808 165.545 287.059 162.949" stroke="#120071" stroke-width="0.711835" stroke-linecap="round" stroke-linejoin="round"/>
<path d="M323.101 147.331C325.865 148.845 328.253 150.963 330.086 153.527C332.267 156.595 333.56 160.207 333.822 163.963C334.083 167.719 333.304 171.474 331.569 174.816" stroke="#120071" stroke-width="0.711835" stroke-linecap="round" stroke-linejoin="round"/>
<path d="M292.643 164.346C292.366 168.955 293.691 173.517 296.395 177.259C298.38 180.058 301.015 182.332 304.073 183.886" stroke="#120071" stroke-width="0.711835" stroke-linecap="round" stroke-linejoin="round"/>
<path d="M314.719 185.985C318.058 185.734 321.289 184.69 324.143 182.941" stroke="#120071" stroke-width="0.711835" stroke-linecap="round" stroke-linejoin="round"/>
<path d="M125.983 62.4309C140.44 62.4309 152.161 50.7106 152.161 36.2537C152.161 21.7967 140.44 10.0764 125.983 10.0764C111.526 10.0764 99.8062 21.7967 99.8062 36.2537C99.8062 50.7106 111.526 62.4309 125.983 62.4309Z" stroke="#120071" stroke-width="0.711835" stroke-linecap="round" stroke-linejoin="round"/>
<path d="M106.961 28.2269C105.49 31.6893 104.997 35.489 105.536 39.2122C106.074 42.9354 107.624 46.4395 110.017 49.3428C112.035 51.7632 114.569 53.7013 117.433 55.0149" stroke="#120071" stroke-width="0.711835" stroke-linecap="round" stroke-linejoin="round"/>
<path d="M128.34 56.6616C131.669 56.3011 134.852 55.1006 137.589 53.1727" stroke="#120071" stroke-width="0.711835" stroke-linecap="round" stroke-linejoin="round"/>
<path d="M145.094 28.4808C146.169 31.1096 146.685 33.9334 146.61 36.7726C146.535 39.6118 145.869 42.4042 144.656 44.9724" stroke="#120071" stroke-width="0.711835" stroke-linecap="round" stroke-linejoin="round"/>
<path d="M113.855 19.5889C116.575 17.6395 119.712 16.3516 123.017 15.8278" stroke="#120071" stroke-width="0.711835" stroke-linecap="round" stroke-linejoin="round"/>
<path d="M141.864 23.156C139.67 20.5391 136.89 18.4767 133.749 17.1365" stroke="#120071" stroke-width="0.711835" stroke-linecap="round" stroke-linejoin="round"/>
<path d="M54.87 205.356L52.9501 201.604L60.4543 197.852C61.0756 197.54 61.7754 197.42 62.465 197.506C63.1547 197.593 63.8031 197.882 64.3283 198.337C64.6757 198.64 64.9623 199.009 65.1665 199.423L54.87 205.356ZM52.4271 206.665L46.4935 194.972L43.7891 196.369L42.5676 193.926L47.0165 191.657L45.6213 188.954L48.0642 187.733L49.4594 190.437L51.3793 189.477L49.9842 186.773L52.4271 185.551L53.8223 188.256L54.0855 188.077C55.0792 187.571 56.1978 187.365 57.3063 187.481C58.4148 187.598 59.466 188.032 60.333 188.733C61.2 189.433 61.8457 190.37 62.1924 191.429C62.539 192.489 62.5717 193.626 62.2865 194.703C63.397 194.743 64.4765 195.079 65.4126 195.678C66.3488 196.276 67.1074 197.115 67.6094 198.106L52.4271 206.665ZM59.4944 191.825C59.1233 191.108 58.4832 190.568 57.7143 190.323C56.9455 190.077 56.1107 190.147 55.393 190.516L49.0242 193.74L51.8164 199.238L58.1851 196.014C58.8946 195.615 59.4251 194.96 59.6684 194.183C59.9116 193.406 59.8494 192.565 59.4944 191.832V191.825Z" stroke="#120071" stroke-width="0.711835" stroke-linecap="round" stroke-linejoin="round"/>
<path d="M222.576 343.221C231.055 316.339 248.134 292.989 271.184 276.765C294.235 260.541 321.978 252.342 350.145 253.431" stroke="#120071" stroke-width="0.711835" stroke-linecap="round" stroke-linejoin="round"/>
<path d="M239.592 66.1833C243.344 58.5035 248.329 52.5108 255.21 49.604C264.825 45.5421 277.373 47.7719 296.832 58.7668C316.292 69.7635 324.699 79.4403 326.146 89.7422C327.129 96.7271 324.837 103.712 320.649 110.518" stroke="#120071" stroke-width="0.711835" stroke-linecap="round" stroke-linejoin="round"/>
<path d="M281.648 154.399C283.994 155.095 286.389 155.62 288.812 155.969C303.66 157.786 312.095 150.987 316.299 143.753C324.729 129.246 318.07 119.317 316.387 108.852C314.841 99.2485 318.04 93.5835 312.373 86.0775C308.356 80.7564 301.484 75.3995 290.82 69.3244C280.194 63.2709 272.061 60.1509 265.429 59.4632C256.007 58.4889 252.856 64.0696 243.788 67.7537C235.668 71.0528 225.988 71.1566 218.31 79.6209" stroke="#120071" stroke-width="0.711835" stroke-linecap="round" stroke-linejoin="round"/>
<path d="M304.161 41.7524C303.495 40.5152 302.498 39.4877 301.281 38.7847C300.407 38.2644 299.437 37.9237 298.429 37.7826C297.421 37.6416 296.395 37.7029 295.411 37.9631C294.427 38.2232 293.505 38.677 292.699 39.2978C291.892 39.9186 291.218 40.694 290.714 41.5786C290.063 42.7134 289.709 43.9941 289.685 45.3021C289.66 46.6101 289.966 47.9032 290.575 49.0614C291.185 50.2188 292.078 51.2033 293.17 51.9237C294.263 52.6441 295.519 53.0771 296.824 53.1825" stroke="#120071" stroke-width="0.711835" stroke-linecap="round" stroke-linejoin="round"/>
<path d="M45.7072 125.607L55.4807 115.483L38.4662 100.999L32.0956 122.376L45.7072 125.605V125.607Z" stroke="#120071" stroke-width="0.711835" stroke-linecap="round" stroke-linejoin="round"/>
<path d="M32.0956 122.375L42.3043 113.825L55.4807 115.482" stroke="#120071" stroke-width="0.711835" stroke-linecap="round" stroke-linejoin="round"/>
<path d="M54.9578 119.322L48.9364 136.512L34.9756 125.691" stroke="#120071" stroke-width="0.711835" stroke-linecap="round" stroke-linejoin="round"/>
<path d="M48.9365 136.514L46.2321 127.438" stroke="#120071" stroke-width="0.711835" stroke-linecap="round" stroke-linejoin="round"/>
<path d="M45.7072 125.607L38.4662 100.999" stroke="#120071" stroke-width="0.711835" stroke-linecap="round" stroke-linejoin="round"/>
<path d="M129.125 22.4673L118.567 29.094L121.098 33.1076L127.642 29.0062L131.743 35.5505L135.762 33.0252L129.125 22.4673ZM116.036 30.6701L112.11 33.113L114.553 37.0407L118.479 34.5959L116.036 30.6701ZM137.328 35.4664L133.4 37.9093L135.843 41.8352L139.771 39.3922L137.328 35.4664ZM130.869 39.3922L124.327 43.4936L120.225 36.9493L116.212 39.48L122.839 50.0469L133.397 43.4202L130.869 39.3922ZM126.682 33.0252L122.756 35.4664L125.196 39.3958L129.121 36.9529L126.682 33.0252Z" stroke="#120071" stroke-width="0.711835" stroke-linecap="round" stroke-linejoin="round"/>
<path d="M320.303 160.691L315.156 156.851L311.404 161.824L316.378 165.576L314.458 168.107L309.489 164.346L305.126 170.192L310.274 174.032C310.901 174.51 311.617 174.858 312.38 175.056C313.144 175.253 313.939 175.297 314.719 175.183C315.499 175.069 316.249 174.801 316.924 174.393C317.599 173.986 318.186 173.448 318.65 172.81L321.442 169.058C321.919 168.434 322.267 167.722 322.468 166.962C322.668 166.203 322.717 165.412 322.611 164.634C322.505 163.855 322.247 163.106 321.851 162.428C321.455 161.75 320.929 161.156 320.303 160.682V160.691Z" stroke="#120071" stroke-width="0.711835" stroke-linecap="round" stroke-linejoin="round"/>
<path d="M316.463 153.876L322.136 158.151C324.06 159.623 325.329 161.792 325.672 164.19C326.014 166.589 325.403 169.026 323.968 170.978L321.176 174.739C319.716 176.681 317.545 177.964 315.141 178.307C312.736 178.651 310.293 178.026 308.348 176.571L300.67 170.811L306.953 162.523L304.946 160.952" stroke="#120071" stroke-width="0.711835" stroke-linecap="round" stroke-linejoin="round"/>
<path d="M171.967 179.704C200.065 180.576 220.394 180.662 228.509 174.381" stroke="#120071" stroke-width="0.711835" stroke-linecap="round" stroke-linejoin="round"/>
<path d="M215.858 185.113C216.644 186.771 217.34 188.337 217.951 189.913" stroke="#120071" stroke-width="0.711835" stroke-linecap="round" stroke-linejoin="round"/>
<path d="M221.442 199.86C229.645 226.822 223.099 241.909 238.098 237.99C252.494 234.229 260.35 231.795 268.814 229.44" stroke="#120071" stroke-width="0.711835" stroke-linecap="round" stroke-linejoin="round" stroke-dasharray="2.09 2.09"/>
<path d="M273.97 228.131C275.629 227.694 277.285 227.345 279.032 226.909" stroke="#120071" stroke-width="0.711835" stroke-linecap="round" stroke-linejoin="round"/>
<path d="M188.721 218.27C188.056 219.884 187.358 221.484 186.627 223.07" stroke="#120071" stroke-width="0.711835" stroke-linecap="round" stroke-linejoin="round"/>
<path d="M182.613 232.755C178.687 242.615 177.294 248.024 178.162 252.65C179.654 260.589 182.613 270.712 197.883 306.573" stroke="#120071" stroke-width="0.711835" stroke-linecap="round" stroke-linejoin="round" stroke-dasharray="2.07 2.07"/>
<path d="M199.977 311.373C200.676 312.944 201.374 314.514 202.071 316.171" stroke="#120071" stroke-width="0.711835" stroke-linecap="round" stroke-linejoin="round"/>
<path d="M194.742 27.5282C195.571 25.2995 196.783 23.2327 198.324 21.4209" stroke="#120071" stroke-width="0.711835" stroke-linecap="round" stroke-linejoin="round"/>
<path d="M195.79 42.5363C194.65 40.4276 193.938 38.1148 193.694 35.7305" stroke="#120071" stroke-width="0.711835" stroke-linecap="round" stroke-linejoin="round"/>
<path d="M207.918 51.8733C205.522 51.3282 203.266 50.2914 201.291 48.8286" stroke="#120071" stroke-width="0.711835" stroke-linecap="round" stroke-linejoin="round"/>
<path d="M222.925 48.9928C220.867 50.4243 218.558 51.4571 216.119 52.0375" stroke="#120071" stroke-width="0.711835" stroke-linecap="round" stroke-linejoin="round"/>
<path d="M230.685 35.7305C230.425 38.2058 229.684 40.6066 228.504 42.7978" stroke="#120071" stroke-width="0.711835" stroke-linecap="round" stroke-linejoin="round"/>
<path d="M225.805 21.1592C227.474 22.9883 228.778 25.1204 229.645 27.4402" stroke="#120071" stroke-width="0.711835" stroke-linecap="round" stroke-linejoin="round"/>
<path d="M205.3 16.5353C207.489 15.6497 209.832 15.2054 212.193 15.2279C214.589 15.244 216.959 15.7168 219.178 16.6231" stroke="#120071" stroke-width="0.711835" stroke-linecap="round" stroke-linejoin="round"/>
<path d="M157.222 309.976C157.324 310.759 157.383 311.545 157.401 312.333C157.392 315.258 156.511 318.113 154.871 320.534" stroke="#120071" stroke-width="0.711835" stroke-linecap="round" stroke-linejoin="round"/>
<path d="M134.536 300.205C136.957 298.564 139.812 297.683 142.737 297.674C146.348 297.665 149.833 299.003 152.51 301.426" stroke="#120071" stroke-width="0.711835" stroke-linecap="round" stroke-linejoin="round"/>
<path d="M129.474 318.528C128.571 316.587 128.094 314.474 128.077 312.333C128.068 311.009 128.243 309.69 128.598 308.415" stroke="#120071" stroke-width="0.711835" stroke-linecap="round" stroke-linejoin="round"/>
<path d="M147.099 326.294C145.689 326.746 144.218 326.981 142.737 326.993C140.595 326.975 138.483 326.498 136.542 325.596" stroke="#120071" stroke-width="0.711835" stroke-linecap="round" stroke-linejoin="round"/>
</svg>
